<?xml version="1.0" encoding="utf-8"?>
<!-- Generator: Adobe Illustrator 16.0.0, SVG Export Plug-In . SVG Version: 6.00 Build 0)  -->
<!DOCTYPE svg PUBLIC "-//W3C//DTD SVG 1.1//EN" "http://www.w3.org/Graphics/SVG/1.1/DTD/svg11.dtd">
<svg version="1.1" id="Capa_1" xmlns="http://www.w3.org/2000/svg" xmlns:xlink="http://www.w3.org/1999/xlink" x="0px" y="0px"
	 width="360px" height="300px" viewBox="0 0 360 300" enable-background="new 0 0 360 300" xml:space="preserve">
<g>
	<path fill="#FFFFFF" d="M47.961,288.97c0.941-1.33,1.443-3.032,1.733-5.119c0.285-2.091,0.355-4.589,0.355-7.561
		c0-1.049-0.007-2.157-0.019-3.327c-0.004-0.26-0.005-0.52-0.005-0.779c-0.001-3.205,0.19-6.363,0.19-9.044
		c0-1.183-0.036-2.275-0.149-3.249c-0.115-0.975-0.298-1.834-0.637-2.568c-1.076-2.319-2.853-4.021-4.348-5.162
		c-0.48-0.365-0.926-0.667-1.321-0.917c0.482-0.258,1.042-0.572,1.625-0.934c0.802-0.497,1.643-1.074,2.371-1.713
		c0.727-0.643,1.355-1.333,1.696-2.162c0.436-1.098,0.682-2.48,0.837-4.012c0.153-1.526,0.204-3.192,0.204-4.802
		c0-3.046-0.188-5.897-0.261-7.133c-0.208-3.503-0.098-6.551-0.581-9.508c-0.477-2.953-1.605-5.805-4.203-8.684
		c-0.742-0.815-1.918-1.612-3.465-2.495c-2.702-1.532-6.519-3.246-10.749-4.975c-12.685-5.178-29.051-10.441-29.063-10.445
		l-1.104-0.355v98.957l0.751,0.084c0.382,0.042,0.969,0.077,1.762,0.109c2.368,0.097,6.525,0.157,11.365,0.157
		c1.784,0,3.66-0.007,5.57-0.025c5.66-0.055,11.679-0.084,16.674-0.587c2.5-0.255,4.742-0.624,6.584-1.197
		C45.611,290.946,47.083,290.187,47.961,288.97z M34.914,266.488c-0.008,3.488-0.164,5.43-1.722,6.204
		c-1.559,0.775-15.695-1.269-16.318-2.046v-12.629c0,0,10.064,0.106,14.926,1.419C34.889,260.273,34.925,263.108,34.914,266.488z
		 M33.186,239.227c-1.559,0.773-15.54-2.481-16.162-3.254v-12.631c0,0,9.949,1.721,14.811,3.035
		c3.085,0.833,3.231,3.543,3.221,6.921C35.046,236.788,34.743,238.451,33.186,239.227z"/>
	<path fill="#FFFFFF" d="M79.919,292.221c4.949,0,10.17-0.075,14.32-0.189c2.077-0.056,3.883-0.122,5.258-0.192
		c0.688-0.036,1.269-0.072,1.725-0.112c0.462-0.04,0.775-0.072,1.036-0.131v0.001c1.344-0.317,2.767-0.869,3.983-1.6
		c0.608-0.366,1.165-0.778,1.636-1.242c0.468-0.465,0.854-0.983,1.082-1.583c0.069-0.185,0.11-0.368,0.155-0.587
		c0.151-0.803,0.26-2.094,0.352-3.831c0.273-5.19,0.358-14.236,0.358-23.39c0-14.443-0.208-29.129-0.208-29.131l-0.011-0.704
		l-17.396-3.067l-0.139,42.736v0.002c0.001,0.021-0.012,0.503-0.159,1.006c-0.073,0.252-0.178,0.507-0.315,0.715
		c-0.136,0.211-0.295,0.371-0.493,0.482c-0.589,0.33-1.232,0.529-2.234,0.671c-0.999,0.142-2.334,0.212-4.198,0.285
		c-2.598,0.105-4.994,0.063-6.986,0.158l-0.091,0.003c-0.323-0.005-0.479-0.075-0.616-0.177c-0.103-0.079-0.201-0.194-0.292-0.368
		c-0.289-0.52-0.409-1.554-0.428-2.588c-0.01-0.392-0.02-2.01-0.025-4.383c-0.021-7.134-0.026-21.218-0.026-31.025
		c0-3.081,0.001-5.742,0.001-7.632c0-1.888,0-3.005,0-3.007v-0.556l-16.547-7.318l0.009,1.313c0,0,0.112,16.758,0.272,33.794
		c0.08,8.518,0.17,17.104,0.265,23.701c0.048,3.3,0.095,6.101,0.143,8.149c0.025,1.024,0.049,1.859,0.073,2.48
		c0.011,0.311,0.023,0.565,0.036,0.768c0.014,0.207,0.022,0.339,0.045,0.482c0.215,1.271,0.464,2.205,0.913,3.019
		c0.447,0.815,1.071,1.438,1.883,2.092c0.18,0.141,0.317,0.191,0.461,0.244c0.268,0.092,0.56,0.149,0.927,0.206
		c1.267,0.19,3.393,0.313,6.062,0.393C73.417,292.188,76.607,292.221,79.919,292.221z"/>
	<path fill="#FFFFFF" d="M160.047,267.967c1.824-0.368,3.998-1.061,5.64-2.545c1.467-1.33,2.231-3.053,2.612-4.909
		c0.382-1.86,0.413-3.883,0.413-5.984c0-0.509-0.001-1.022-0.001-1.54c0-2.726,0.154-6.033,0.154-9.059
		c-0.001-2.241-0.082-4.324-0.394-5.966c-0.224-1.157-0.497-2.162-1.112-3.052c-0.614-0.892-1.532-1.579-2.839-2.17
		c-0.167-0.075-0.327-0.12-0.509-0.164c-0.695-0.164-1.778-0.282-3.239-0.394c-5.086-0.38-14.545-0.571-22.996-0.67
		c-8.446-0.098-15.865-0.101-16.811-0.101h-0.103h-0.845v0.851v60.215h15.374l-0.17-23.831c1.009-0.097,2.823-0.249,4.051-0.248
		c0.315,0,0.59,0.01,0.78,0.03c0.088,0.008,0.152,0.02,0.193,0.028c0.047,0.035,0.174,0.157,0.331,0.359
		c0.331,0.417,0.779,1.12,1.281,2c1.761,3.093,4.219,8.398,6.223,12.906c1.003,2.255,1.893,4.314,2.533,5.81
		c0.319,0.747,0.577,1.354,0.753,1.773c0.178,0.419,0.273,0.65,0.275,0.651l0.219,0.527l18.429-0.221l-12.53-23.983
		C158.385,268.231,159.176,268.139,160.047,267.967z M149.926,255.513c-4.971,0.622-15.012,0.506-15.012,0.506l0.441-9.831
		c1.091-0.479,12.865-0.854,14.57-0.648c1.792,0.216,2.938,1.079,2.882,4.19C152.757,252.657,153.081,255.113,149.926,255.513z"/>
	<path fill="#FFFFFF" d="M224.478,227.982c-5.955,0.574-18.779,1.775-25.951,2.21c-3.979,0.241-7.282,0.697-9.943,1.345
		c-2.661,0.652-4.688,1.486-6.13,2.547c-0.824,0.611-1.433,1.437-1.886,2.348c-0.679,1.37-1.027,2.95-1.222,4.496
		c-0.192,1.546-0.225,3.057-0.225,4.272c0,0.892-0.104,4.132-0.208,8.337c-0.105,4.21-0.21,9.411-0.21,14.304
		c0,3.511,0.054,6.863,0.201,9.587c0.074,1.362,0.17,2.567,0.3,3.566c0.131,1.004,0.279,1.784,0.513,2.385
		c0.756,1.903,1.303,3.383,2.029,4.608c0.721,1.227,1.683,2.187,3.075,2.827c1.161,0.538,2.932,1.025,5.007,1.4
		c2.07,0.372,4.423,0.62,6.674,0.621c4.793,0,31.273-0.298,31.277-0.298l0.837-0.01v-38.369h-16.341v21.857h-15.449v-29.525h31.79
		v-18.914l-0.931,0.093C227.684,227.67,226.464,227.791,224.478,227.982z"/>
	<polygon fill="#FFFFFF" points="258.529,266.899 282.628,264.626 282.628,263.852 282.628,243.654 259.097,246.482 
		259.097,238.075 291.149,234.972 291.149,213.991 241.254,223.625 241.254,292.945 290.106,293.035 290.106,273.624 
		258.529,273.624 	"/>
	<path fill="#FFFFFF" d="M339.948,259.822c1.337-0.001,3.203-0.063,4.937-0.363c0.866-0.151,1.701-0.359,2.439-0.671
		c0.732-0.315,1.394-0.727,1.834-1.384c0.238-0.363,0.406-0.79,0.573-1.321c0.31-0.991,0.585-2.341,0.847-3.991
		c0.914-5.76,1.637-15.155,2.136-23.764c0.498-8.61,0.771-16.396,0.771-18.938c0-0.186-0.002-0.347-0.005-0.479
		c-0.04-1.588-0.025-4.074-0.694-6.272c-0.341-1.101-0.86-2.15-1.714-2.953c-0.85-0.804-2.043-1.3-3.482-1.291
		c-0.172,0-0.347,0.006-0.525,0.02c-1.126,0.082-2.623,0.343-4.42,0.729c-6.271,1.355-16.156,4.295-24.5,6.9
		c-8.339,2.604-15.122,4.873-15.125,4.874l-0.58,0.194v0.612v80.868l16.344-0.164l-0.314-27.333c0.043-0.005,0.079-0.01,0.123-0.015
		c1.614-0.188,5.122-0.564,6.913-0.562c0.295-0.001,0.538,0.01,0.696,0.027c0.027,0.004,0.051,0.007,0.072,0.011
		c0.062,0.07,0.158,0.203,0.266,0.387c0.292,0.488,0.669,1.305,1.077,2.325c1.433,3.581,3.29,9.686,4.777,14.866
		c0.744,2.594,1.397,4.96,1.863,6.678c0.233,0.859,0.422,1.556,0.551,2.036c0.129,0.483,0.197,0.748,0.197,0.748l0.164,0.623
		l16.545,0.282l-12.299-32.686C339.581,259.82,339.757,259.822,339.948,259.822z M336.458,233.654
		c-0.463,3.537-0.104,5.678-3.146,6.421c-5.351,1.309-15.69,2.257-15.69,2.257v-12.956c1.012-0.212,16.187-4.22,17.816-3.808
		C337.149,225.998,336.953,229.889,336.458,233.654z"/>
	<rect x="80.637" y="226.211" fill="#FFFFFF" width="2.537" height="40.734"/>
	<path fill="#FFFFFF" d="M113.465,229.576c0,0.002,0.004,0.624,0.012,1.746c0.022,3.361,0.065,11.188,0.065,19.972
		c0,7.756-0.035,16.259-0.147,23.09c-0.056,3.415-0.133,6.414-0.234,8.682c-0.049,1.134-0.107,2.086-0.17,2.806
		c-0.03,0.358-0.063,0.66-0.094,0.89c-0.03,0.227-0.065,0.391-0.076,0.423c-0.472,1.629-1.537,2.943-3.19,4.07
		c-2.469,1.684-6.226,2.798-10.451,3.436c-4.225,0.645-8.913,0.838-13.285,0.838c-3.136,0-6.11-0.1-8.648-0.198
		c-2.54-0.1-4.632-0.201-6.061-0.202c-0.61,0.002-1.09,0.016-1.512,0.074l0.361,2.526c0.178-0.027,0.6-0.049,1.151-0.048
		c1.317,0,3.417,0.098,5.963,0.198c2.55,0.101,5.558,0.2,8.747,0.2c5.933-0.002,12.475-0.34,17.941-1.714
		c2.735-0.691,5.209-1.638,7.215-2.996c2-1.349,3.548-3.166,4.21-5.479c0.069-0.246,0.109-0.485,0.151-0.779
		c0.147-1.084,0.25-2.894,0.339-5.302c0.263-7.204,0.33-19.596,0.33-30.515c0-11.723-0.078-21.736-0.078-21.738L113.465,229.576z"/>
	<polygon fill="#FFFFFF" points="140.993,294.171 119.402,294.246 119.412,296.798 143.531,296.713 143.531,279.59 140.993,279.59 	
		"/>
	<path fill="#FFFFFF" d="M169.697,270.728c1.176-0.737,2.393-1.662,3.4-2.828c1.002-1.161,1.803-2.593,2.008-4.279
		c0.732-6.081,0.758-8.015,0.8-13.486c0.005-0.548,0.007-1.073,0.007-1.577c0.001-5.004-0.208-7.938-0.341-10.254
		c-0.168-2.896-0.841-4.925-1.885-6.305c-0.52-0.685-1.137-1.196-1.795-1.525c-0.656-0.33-1.344-0.476-1.99-0.476l-0.004,2.551
		c0.279,0.001,0.566,0.061,0.86,0.208c0.438,0.223,0.925,0.649,1.368,1.536c0.439,0.885,0.804,2.229,0.912,4.156
		c0.134,2.344,0.337,5.169,0.337,10.108c0,0.497-0.002,1.016-0.008,1.557c-0.045,5.498-0.057,7.159-0.782,13.199
		c-0.126,1.05-0.633,2.018-1.407,2.916c-1.151,1.346-2.888,2.454-4.33,3.184c-0.721,0.368-1.367,0.645-1.826,0.829
		c-0.23,0.091-0.413,0.159-0.537,0.203l-0.138,0.05l-0.033,0.01l-0.005,0.003l-1.543,0.507l16.472,26.464l2.153-1.352
		l-14.799-23.777C167.435,271.983,168.546,271.446,169.697,270.728z"/>
	<rect x="200.423" y="250.327" fill="#FFFFFF" width="2.54" height="20.825"/>
	<rect x="235.01" y="223.574" fill="#FFFFFF" width="2.539" height="73.395"/>
	<rect x="295.057" y="268.095" fill="#FFFFFF" width="2.537" height="28.874"/>
	<polygon fill="#FFFFFF" points="295.057,236.405 286.744,239.507 286.744,268.095 289.282,268.095 289.282,241.281 
		297.594,238.181 297.594,210.193 295.057,210.193 	"/>
	<rect x="322.277" y="271.578" fill="#FFFFFF" width="2.538" height="25.438"/>
	<path fill="#FFFFFF" d="M348.101,265.977c0.621-0.21,1.32-0.522,2.043-1.037c1.367-0.969,2.776-2.588,4.188-5.348l0.01-0.021
		l-0.012,0.023c0.284-0.559,0.502-1.224,0.722-2.038c0.377-1.419,0.722-3.272,1.042-5.401c0.958-6.378,1.666-15.194,1.807-21.028
		c0.094-3.879,0.577-10.13,0.578-17.015c-0.001-4.624-0.219-9.543-0.926-14.271c-0.212-1.423-0.623-2.626-1.198-3.62
		c-0.859-1.494-2.1-2.484-3.403-3.047c-1.306-0.567-2.667-0.743-3.906-0.744c-2.691,0.007-4.874,0.822-4.954,0.847l0.814,2.232
		l0.059,0.163h0.002l0,0c0.049-0.023,1.981-0.696,4.079-0.69c1.334-0.002,2.69,0.268,3.732,0.997
		c0.525,0.367,0.99,0.848,1.383,1.526c0.392,0.676,0.709,1.556,0.883,2.715c0.681,4.548,0.897,9.351,0.897,13.893
		c0,6.775-0.479,12.95-0.577,16.952c-0.103,4.34-0.538,10.477-1.153,15.905c-0.309,2.714-0.662,5.253-1.037,7.294
		c-0.188,1.02-0.381,1.915-0.573,2.633c-0.188,0.717-0.387,1.264-0.526,1.527l-0.004,0.009c-1.287,2.513-2.447,3.756-3.389,4.423
		c-0.951,0.665-1.706,0.816-2.563,1.013l-1.44,0.329l13.008,33.285l2.361-0.934L348.101,265.977z"/>
	<path fill="#FFFFFF" d="M55.286,212.675c-0.622-1.496-1.423-2.865-2.492-3.971c-1.587-1.63-3.962-3.096-6.676-4.481
		c-4.066-2.067-8.888-3.893-12.709-5.213c-3.571-1.234-6.263-2.021-6.609-2.122l-25.924-8.997l-0.828,2.412l25.983,9.018l0.031,0.01
		c0,0,0.073,0.021,0.217,0.063c1.082,0.318,6.057,1.813,11.383,3.891c2.663,1.038,5.413,2.221,7.791,3.463
		c2.377,1.236,4.389,2.557,5.522,3.737c0.774,0.797,1.435,1.889,1.97,3.175c0.803,1.93,1.314,4.282,1.611,6.634
		c0.298,2.353,0.386,4.702,0.386,6.645c0,1.386-0.045,2.563-0.09,3.393c-0.022,0.414-0.045,0.742-0.062,0.963
		c-0.008,0.11-0.015,0.195-0.02,0.251l-0.007,0.079l-0.005,0.062l0.001,0.062v0.079c0,0.515-0.008,3.489-0.172,6.732
		c-0.081,1.621-0.201,3.311-0.375,4.779c-0.088,0.733-0.188,1.412-0.301,1.992c-0.112,0.578-0.24,1.063-0.359,1.381
		c-0.596,1.597-1.322,2.495-1.859,3c-0.269,0.252-0.492,0.404-0.634,0.488l-0.146,0.08l-0.013,0.006l-2.763,1.034l2.677,1.301v0.001
		c0.134,0.062,2.009,1.082,3.177,3.252c0.087,0.151,0.226,0.55,0.329,1.081c0.162,0.802,0.273,1.908,0.341,3.149
		c0.067,1.243,0.09,2.628,0.09,4.021c0,2.885-0.099,5.8-0.1,7.711c0,0.402,0.006,0.763,0.016,1.077
		c0.035,0.961,0.055,1.927,0.055,2.892c0,3.242-0.217,6.46-0.753,9.307c-0.535,2.848-1.399,5.313-2.608,7.059
		c-1.741,2.525-3.196,3.717-4.147,4.277c-0.477,0.281-0.83,0.405-1.042,0.464c-0.106,0.029-0.178,0.04-0.213,0.045l-0.024,0.003
		l0.028,0.455v2.095h0.003c0.259,0.003,1.204-0.074,2.532-0.861c1.333-0.785,3.047-2.263,4.951-5.024
		c1.505-2.192,2.433-4.972,3.013-8.036c0.579-3.065,0.798-6.426,0.799-9.782c0-0.998-0.02-1.996-0.056-2.984
		c-0.01-0.267-0.013-0.601-0.013-0.984c0-1.833,0.097-4.775,0.098-7.711c-0.001-1.896-0.041-3.794-0.181-5.43
		c-0.069-0.819-0.164-1.572-0.299-2.244c-0.139-0.674-0.301-1.26-0.588-1.799c-0.81-1.479-1.817-2.522-2.653-3.218
		c0.787-0.774,1.68-1.992,2.361-3.829c0.195-0.526,0.344-1.12,0.474-1.785c0.447-2.321,0.66-5.547,0.774-8.356
		c0.113-2.803,0.119-5.164,0.119-5.637v-0.036c0.029-0.337,0.183-2.223,0.183-4.852c-0.001-2.695-0.16-6.146-0.805-9.47
		C56.351,215.805,55.908,214.173,55.286,212.675z"/>
	<polygon fill="#FFFFFF" points="29.278,164.034 29.278,116.164 23.356,116.164 23.356,137.123 18.952,137.123 18.952,116.164 
		13.03,116.164 13.03,140.099 13.03,164.034 18.952,164.034 18.952,143.076 23.356,143.076 23.356,164.034 	"/>
	<polygon fill="#FFFFFF" points="62.687,164.035 62.687,121.761 67.509,121.761 67.509,115.809 51.939,115.809 51.939,121.761 
		56.765,121.761 56.765,164.035 	"/>
	<path fill="#FFFFFF" d="M45.049,117.162c-0.542-0.402-1.147-0.741-1.812-0.98c-0.663-0.239-1.387-0.374-2.121-0.374
		c-0.736,0-1.459,0.135-2.123,0.374c-1.166,0.421-2.135,1.138-2.927,1.982c-1.187,1.275-2.023,2.851-2.605,4.615
		c-0.578,1.765-0.887,3.731-0.889,5.811v21.568c0.008,3.171,0.706,6.073,2.026,8.413c0.668,1.167,1.504,2.209,2.585,3.016
		c0.541,0.402,1.146,0.741,1.81,0.98c0.664,0.238,1.386,0.374,2.123,0.373c0.734,0.001,1.458-0.133,2.121-0.373
		c1.166-0.42,2.136-1.138,2.928-1.981c1.188-1.274,2.025-2.852,2.606-4.615c0.577-1.767,0.888-3.732,0.889-5.812v-21.568
		c-0.01-3.169-0.706-6.07-2.027-8.411C46.964,119.011,46.13,117.97,45.049,117.162z M43.737,150.157
		c0.009,2.247-0.545,4.248-1.245,5.457c-0.342,0.604-0.71,1-0.963,1.186c-0.128,0.094-0.223,0.14-0.285,0.161l-0.128,0.026
		l-0.127-0.026c-0.104-0.036-0.329-0.155-0.61-0.457c-0.425-0.446-0.933-1.285-1.291-2.396c-0.365-1.109-0.593-2.477-0.592-3.951
		v-21.568c-0.008-2.244,0.545-4.245,1.245-5.454c0.343-0.607,0.711-1.002,0.965-1.187c0.126-0.094,0.222-0.14,0.284-0.162
		l0.127-0.025l0.128,0.025c0.105,0.037,0.327,0.156,0.611,0.458c0.423,0.445,0.932,1.285,1.292,2.395
		c0.363,1.108,0.593,2.475,0.591,3.949V150.157z"/>
	<rect x="11.882" y="173.882" fill="#FFFFFF" width="55.627" height="5.953"/>
	<rect x="11.882" y="100.235" fill="#FFFFFF" width="55.627" height="5.953"/>
	<rect x="291.253" y="103.524" fill="#FFFFFF" width="50.047" height="5.953"/>
	<rect x="291.101" y="175.909" fill="#FFFFFF" width="50.087" height="5.952"/>
	<path fill="#FFFFFF" d="M297.415,146.306h4.389l0.559,19.578l5.919-0.171l-1.033-36.24l-7.53-12.324l-7.689,12.303l-1.158,36.251
		l5.919,0.19L297.415,146.306z M297.896,131.254l1.765-2.823l1.714,2.803l0.26,9.12h-4.028L297.896,131.254z"/>
	<polygon fill="#FFFFFF" points="312.813,118.701 312.813,166.25 327.032,166.25 327.032,160.298 318.735,160.298 318.735,118.701 	
		"/>
	<rect x="333.973" y="118.702" fill="#FFFFFF" width="5.922" height="47.569"/>
	<path fill="#FFFFFF" d="M266.156,143.672c-0.809-2.281-2.424-4.735-4.055-4.735c-0.481,0-0.936,0.205-1.243,0.563
		c-0.188,0.219-0.49,0.696-0.387,1.428c0.319,2.296,0.756,5.441-3.462,11.149c-1.999,2.704-3.076,2.842-3.271,2.842
		c-0.457,0-0.858-0.743-1.009-1.064c-1.247-2.632-0.9-7.188-0.353-7.87c6.644-6.256,12.789-17.612,10.12-30.719
		c-3.446-16.949,7.895-19.83,8.372-19.943l2.127-0.481l-1.242-1.8c-0.102-0.146-2.508-3.566-6.412-3.566
		c-0.953,0-1.911,0.206-2.852,0.613c-2.826,1.225-4.986,3.438-6.893,5.391c-1.749,1.793-3.401,3.486-4.808,3.487
		c-0.336,0-0.678-0.092-1.046-0.282c-3.877-2.004-3.041-9.72-0.436-21.519c4.501-20.382-8.995-38.608-11.747-42.055
		c-1.98-2.482-4.716-5.44-6.492-5.44c-0.581,0-1.106,0.259-1.442,0.71c-0.616,0.832-0.305,1.886-0.203,2.232
		c2.166,7.32,0.631,10.802-1.691,16.072c-1.039,2.36-2.219,5.034-3.197,8.438c-0.19,0.662-0.373,1-0.484,1.161
		c-1.932-1.21-6.049-12.151-6.049-26.951c0-14.975-15.905-20.015-23.161-20.015c-0.838,0-2.803,0-3.065,1.566
		c-0.163,0.976,0.444,1.71,1.806,2.184c4.931,1.713,7.985,5.103,7.985,16.691c0,7.857-3.959,12.737-10.334,12.738
		c-1.463,0-3.021-0.261-4.629-0.776c-7.944-2.543-11.82-9.39-14.044-14.319c-4.889-10.823,0.406-21.993,2.399-26.198
		c0.76-1.602,1.043-2.202,0.548-2.991c-0.276-0.441-0.752-0.705-1.275-0.706l-0.414,0.021l-0.312,0.157
		c-30.444,15.377-31.562,34.447-32.23,45.841c-0.106,1.806-0.198,3.365-0.385,4.731c-1.117,8.167-6.919,14.563-13.208,14.564
		c-1.235,0-2.478-0.24-3.695-0.712c-2.867-1.113-8.915-7.8-10.397-11.035c-5.818-12.701-8.051-17.496-9.187-19.307
		c-0.003-0.006-0.005-0.013-0.007-0.018l-0.004,0.001c-0.682-1.081-0.967-1.081-1.403-1.081l-0.786,0.001l-0.436,0.655
		c-0.449,0.674-0.194,1.295,0.01,1.794c1.485,3.61,2.532,8.036-0.954,13.493c-5.384,8.419-4.322,20.941-2.244,25.292
		c1.258,2.634,2.516,4.624,3.626,6.379c2.854,4.514,4.425,7,2.585,14.8c-1.475,6.259-2.068,12.496-1.772,18.606
		c-2.239-3.092-5.459-6.845-8.91-8.62c-3.15-1.622-6.274-2.443-9.286-2.443c-2.688,0-4.293,0.669-4.468,0.746l-2.293,1.009
		l1.996,1.522c0.056,0.043,5.672,4.408,8.083,13.53c1.859,7.035,3.029,14.75,4.162,22.211c1.43,9.428,2.782,18.333,5.374,24.795
		c8.334,20.757,19.696,27.372,20.175,27.644l0.34,0.191l3.415-0.019c1.542,1,3.35,1.882,5.514,2.689
		c3.81,1.419,8.55,2.576,14.49,3.538c6.699,1.081,14.664,1.855,23.674,2.301c7.167,0.355,12.938,0.395,15.087,0.395h1.793
		c3.633-0.001,13.214-0.125,23.692-1.255c6.159-0.665,11.6-1.574,16.176-2.703c5.88-1.461,10.282-3.243,13.458-5.446
		c1.411-0.98,2.684-2.13,3.887-3.508C269.636,165.376,268.187,149.393,266.156,143.672z M200.61,123.969
		c1.73,0.983,3.502,2.207,4.973,3.658c1.472,1.453,2.635,3.125,3.207,5.011l0.444,1.463l11.475-13.186h21.02
		c0.957,0.42,1.594,0.962,2.001,1.566c0.425,0.632,0.617,1.345,0.619,2.107c0.007,1.46-0.761,3.083-1.948,4.151
		c-0.668,0.597-1.29,0.853-2.104,1.001c-1.216,0.222-2.86,0.087-5.058,0.233c-2.201,0.148-4.946,0.607-8.422,2.051
		c-2.316,0.96-3.864,1.894-5.002,2.783c-0.854,0.666-1.47,1.305-1.99,1.874c-0.785,0.86-1.336,1.521-2.224,2.083
		c-0.89,0.564-2.183,1.074-4.476,1.478c-1.317,0.232-2.506,0.337-3.604,0.337c-2.827-0.003-5.071-0.688-7.473-1.818
		c-2.396-1.128-4.926-2.715-8.183-4.436c-2.758-1.457-5.435-2.172-8.158-2.169c-2.575,0-5.17,0.633-7.92,1.798
		c-2.75,1.167-5.664,2.865-8.916,5.029c-2.63,1.749-4.899,2.378-6.833,2.38c-2.512-0.001-4.529-1.072-6.039-2.409
		c-0.752-0.667-1.369-1.398-1.837-2.073c-0.466-0.672-0.782-1.295-0.928-1.703c-0.364-1-0.995-2.037-1.985-2.839
		c-0.987-0.803-2.336-1.341-3.992-1.337c-1.904,0.002-4.197,0.681-6.971,2.329c-1.458,0.864-2.925,1.196-4.373,1.198
		c-2.623,0.006-5.192-1.138-7.093-2.315c-0.728-0.448-1.354-0.897-1.85-1.28c0.341-0.227,0.676-0.457,1.024-0.678l23.018-9.34
		h42.568C194.184,121.097,197.314,122.096,200.61,123.969z M198.332,120.916h20.128l-8.575,9.854
		c-0.776-1.719-1.936-3.219-3.273-4.51c-2.528-2.436-5.683-4.169-8.211-5.315C198.376,120.935,198.354,120.926,198.332,120.916z
		 M239.441,116.067c-0.051,0.306-0.102,0.578-0.15,0.836l-122.612-0.085c-0.232-1.561-0.493-3.965-0.493-6.88
		c0-3.757,0.434-8.356,1.884-13.1c1.088-3.56,2.744-7.2,5.216-10.669c3.717-5.2,9.262-10.051,17.726-13.67
		c8.461-3.612,19.863-5.961,35.152-5.96c1.757,0,3.566,0.031,5.426,0.095c13.098,0.447,23.287,2.462,31.177,5.408
		c5.92,2.21,10.546,4.937,14.174,7.932c5.441,4.495,8.674,9.596,10.596,14.645c1.917,5.044,2.494,10.044,2.493,14.188
		C240.03,111.779,239.734,114.305,239.441,116.067z M144.663,120.307c-2.397,0.911-5.497,2.172-8.795,3.735
		c-3.588,1.701-7.4,3.753-10.776,6.102c-3.324,2.315-6.227,4.911-8.074,7.797c-0.13-0.238-0.291-0.604-0.438-1.062
		c-0.382-1.15-0.751-2.846-1.076-4.711c-0.488-2.802-0.887-6.005-1.16-8.5c-0.138-1.249-0.245-2.32-0.316-3.08
		c-0.011-0.105-0.018-0.189-0.026-0.281H144.663z M114.616,136.186c0.248,0.949,0.505,1.751,0.815,2.38
		c0.157,0.315,0.323,0.591,0.554,0.834c0.115,0.121,0.252,0.234,0.423,0.325c0.169,0.091,0.382,0.155,0.605,0.154
		c0.325,0.002,0.623-0.135,0.833-0.302c0.215-0.17,0.371-0.371,0.514-0.599c1.546-2.483,4.118-4.874,7.146-7.041
		c0.583,0.474,1.414,1.098,2.43,1.726c2.054,1.264,4.871,2.562,7.979,2.566c1.709,0.001,3.505-0.407,5.233-1.435
		c2.602-1.548,4.617-2.095,6.11-2.092c1.304,0.003,2.226,0.395,2.932,0.96c0.701,0.567,1.181,1.338,1.456,2.098
		c0.215,0.592,0.59,1.312,1.13,2.091c0.806,1.165,1.981,2.453,3.529,3.467c1.546,1.013,3.481,1.744,5.735,1.744
		c2.31,0,4.923-0.767,7.768-2.664c3.202-2.131,6.038-3.777,8.639-4.879c2.603-1.104,4.965-1.665,7.262-1.665
		c2.428,0.001,4.805,0.622,7.371,1.975c3.195,1.686,5.721,3.274,8.252,4.47c2.524,1.195,5.079,1.981,8.19,1.979
		c1.206,0,2.493-0.116,3.896-0.363c2.147-0.379,3.594-0.866,4.691-1.48c0.822-0.458,1.434-0.986,1.96-1.523
		c0.793-0.811,1.399-1.611,2.424-2.473c1.025-0.862,2.483-1.813,4.97-2.843c4.412-1.826,7.412-1.959,9.817-1.999
		c1.206-0.02,2.271-0.002,3.307-0.183c0.316-0.054,0.629-0.139,0.938-0.243c0.205,0.197,0.405,0.405,0.593,0.629
		c1.365,1.626,2.232,3.908,2.232,6.443c0,2.537-0.867,4.819-2.232,6.445c-1.372,1.629-3.211,2.594-5.227,2.595H119.73
		c-2.015,0-3.854-0.966-5.225-2.595c-1.367-1.626-2.233-3.909-2.233-6.445c0-2.116,0.608-4.048,1.602-5.576
		C114.102,133.949,114.347,135.153,114.616,136.186z M205.223,168.01c2.989-1.234,5.257-3.031,6.947-5.153
		c-0.008,0.071-0.02,0.142-0.02,0.212c0.003,0.54,0.241,1,0.552,1.371c0.479,0.556,1.163,0.981,1.997,1.298
		c0.835,0.312,1.823,0.502,2.906,0.502c2.793,0.012,6.229-1.313,8.865-5.125c0.89-1.28,1.634-2.104,2.234-2.576
		c0.607-0.472,1.023-0.592,1.409-0.597c0.328,0,0.689,0.104,1.136,0.327c0.665,0.329,1.472,0.92,2.469,1.536
		c0.997,0.615,2.197,1.252,3.693,1.646c0.77,0.203,1.521,0.302,2.24,0.302c1.764,0.002,3.346-0.602,4.478-1.684
		c0.154-0.148,0.299-0.306,0.436-0.469c0.22,0.692,0.338,1.43,0.34,2.196c-0.002,2.032-0.833,3.864-2.188,5.202
		c-1.356,1.335-3.227,2.161-5.303,2.162h-35.856C202.882,168.858,204.102,168.473,205.223,168.01z M194.246,168.227h-0.093
		c-4.793,0-8.442-0.868-11.228-2.239c-4.171-2.061-6.465-5.243-7.766-8.582c-1.152-2.968-1.479-6.041-1.537-8.418h19.389h21.791
		c-0.102,4.697-1.151,9.374-4.009,12.9c-1.509,1.865-3.519,3.431-6.218,4.55C201.881,167.553,198.488,168.217,194.246,168.227z
		 M242.964,158.836c-0.79,0.754-1.922,1.214-3.312,1.216c-0.563,0-1.17-0.077-1.809-0.246c-1.708-0.45-2.979-1.265-4.136-2.023
		c-0.579-0.379-1.128-0.747-1.705-1.036c-0.575-0.289-1.199-0.503-1.889-0.505c-0.818-0.004-1.653,0.323-2.451,0.958
		c-0.808,0.638-1.631,1.581-2.578,2.942c-2.365,3.387-5.196,4.388-7.479,4.397c-1.176,0.002-2.207-0.284-2.888-0.654
		c-0.341-0.183-0.589-0.386-0.726-0.549c-0.069-0.081-0.109-0.15-0.131-0.197l-0.02-0.07l0,0l0.04-0.054
		c0.357-0.397,0.597-0.882,0.822-1.45c0.382-0.992,0.675-2.254,0.924-3.619c0.557-3.096,0.843-6.702,0.95-8.275h24.913
		c1.969,2.264,2.741,4.363,2.739,6.014C244.227,157.021,243.753,158.078,242.964,158.836z M169.553,149.06
		c0.513,1.346,1.853,5.325,2.304,11.021c0.021,0.258,0.03,0.503,0.03,0.733c0.001,0.789-0.114,1.413-0.299,1.897
		c-0.285,0.727-0.702,1.164-1.284,1.479c-0.583,0.311-1.363,0.471-2.282,0.471c-2.144,0.006-4.96-0.88-7.397-2.005
		c-1.219-0.561-2.351-1.178-3.27-1.754c-0.919-0.573-1.635-1.122-1.978-1.479c-0.802-0.824-1.656-1.6-2.66-2.18
		c-1-0.58-2.163-0.953-3.487-0.951c-2.101,0.004-4.529,0.897-7.609,3.02c-2.675,1.841-5.295,2.604-7.694,2.605
		c-3.435-0.002-6.455-1.575-8.491-3.989c-1.27-1.511-2.698-2.444-4.206-2.966c-1.509-0.524-3.072-0.651-4.68-0.653
		c-1.82,0.002-3.703,0.166-5.669,0.165c-0.59,0.004-0.916-0.107-0.99-0.163l-0.021-0.014l-0.001-0.022
		c-0.003-0.065,0.031-0.244,0.138-0.475c0.184-0.408,0.564-0.959,1.032-1.515c0.699-0.836,1.588-1.7,2.297-2.346
		c0.354-0.323,0.663-0.593,0.882-0.78c0.051-0.043,0.078-0.066,0.119-0.101H169.553z M115.146,156.039
		c0.479-0.017,0.947-0.028,1.401-0.028c1.519,0,2.888,0.128,4.125,0.56c1.24,0.435,2.369,1.158,3.469,2.457
		c2.331,2.77,5.825,4.591,9.783,4.591c2.762,0,5.733-0.891,8.65-2.903c2.927-2.021,5.057-2.725,6.653-2.721
		c1.015,0.002,1.847,0.269,2.644,0.724c0.795,0.459,1.543,1.123,2.294,1.896c0.518,0.53,1.3,1.11,2.29,1.733
		c1.483,0.928,3.417,1.919,5.455,2.689c2.04,0.77,4.175,1.322,6.109,1.326c1.465-0.001,2.865-0.326,3.924-1.253
		c0.526-0.46,0.946-1.064,1.221-1.786c0.276-0.722,0.414-1.556,0.414-2.509c0-0.278-0.012-0.568-0.037-0.868
		c-0.082-1.044-0.197-2.025-0.327-2.954c0.512,1.554,1.22,3.118,2.199,4.604c1.522,2.31,3.708,4.413,6.768,5.917
		c1.392,0.686,2.972,1.239,4.739,1.647h-67.113c-2.076-0.001-3.946-0.827-5.301-2.162c-1.354-1.338-2.187-3.17-2.187-5.202
		c0-2.031,0.833-3.864,2.187-5.202C114.708,156.396,114.923,156.214,115.146,156.039z M118.1,172.137h122.002
		c-0.053,1.807-0.317,4.648-1.27,7.593c-0.547,1.698-1.317,3.427-2.387,5.027c-1.07,1.603-2.432,3.079-4.199,4.312
		c-2.641,1.852-6.796,3.419-11.576,4.591c-7.176,1.776-15.751,2.736-23.041,3.238c-7.294,0.504-13.316,0.555-15.466,0.555
		c-0.279,0-0.492-0.001-0.635-0.001c-0.143-0.002-0.212-0.002-0.212-0.002h-0.023h-0.019c0,0-0.075,0-0.228,0
		c-0.153,0.002-0.381,0.002-0.676,0.002c-3.228,0.001-14.67-0.089-26.681-1.226c-6.001-0.567-12.146-1.398-17.438-2.592
		c-2.646-0.596-5.076-1.283-7.154-2.059c-2.078-0.772-3.802-1.64-5.02-2.533c-1.252-0.917-2.246-2.037-3.048-3.304
		c-1.203-1.896-1.958-4.128-2.395-6.312c-0.441-2.184-0.563-4.311-0.563-5.959C118.073,172.979,118.084,172.531,118.1,172.137z
		 M241.346,184.731c1.138-2.254,1.845-4.54,2.287-6.61c0.596-2.815,0.71-5.246,0.71-6.736c0-0.937-0.047-1.502-0.051-1.552
		l-0.156-1.874c1.521-1.613,2.462-3.78,2.462-6.162c0-1.472-0.364-2.859-0.995-4.089c0.206-0.63,0.321-1.31,0.32-2.024
		c-0.003-2.266-1.063-4.846-3.416-7.437l-0.252-0.277h-1.492c0.997-0.547,1.895-1.285,2.646-2.182
		c1.639-1.953,2.631-4.617,2.632-7.542c-0.001-2.924-0.993-5.588-2.632-7.541c-0.104-0.123-0.217-0.234-0.325-0.352
		c0.151-0.113,0.303-0.218,0.448-0.351c1.521-1.385,2.5-3.382,2.508-5.414c0.001-1.055-0.278-2.124-0.908-3.06
		c-0.348-0.519-0.812-0.983-1.365-1.391c0.083-0.306,1.336-4.826,1.338-11.331c0-4.101-0.5-8.994-2.152-14.09
		c-1.237-3.82-3.126-7.752-5.926-11.506c-4.194-5.637-10.435-10.839-19.402-14.708c-8.968-3.875-20.649-6.445-35.861-6.966
		c-1.916-0.066-3.781-0.098-5.599-0.098c-14.044,0-25.154,1.913-33.948,5.109c-6.592,2.396-11.877,5.52-16.069,9.076
		c-6.291,5.333-10.083,11.623-12.258,17.699c-2.181,6.083-2.776,11.952-2.778,16.616c0.002,5.898,0.956,9.889,0.988,10.028
		l0.284,1.179c0.178,1.846,0.512,5.023,0.967,8.219c0.05,0.343,0.101,0.686,0.153,1.028c-0.096,0.105-0.198,0.203-0.29,0.313
		c-1.639,1.953-2.631,4.616-2.632,7.541c0.001,2.925,0.993,5.588,2.632,7.542c0.501,0.599,1.072,1.121,1.689,1.571h-1.172
		l-0.233,0.191c-0.014,0.01-1.282,1.045-2.572,2.352c-0.645,0.656-1.295,1.375-1.81,2.097c-0.255,0.361-0.478,0.724-0.646,1.095
		c-0.167,0.371-0.29,0.753-0.293,1.182c-0.001,0.271,0.058,0.567,0.202,0.836c0.218,0.409,0.608,0.693,1.027,0.845
		c0.426,0.156,0.903,0.217,1.474,0.219c0.603-0.001,1.188-0.017,1.763-0.035c-1.255,1.549-2.013,3.517-2.013,5.657
		c0,2.506,1.033,4.78,2.695,6.416c0.259,0.256,0.538,0.49,0.827,0.713l-0.107,0.804c-0.009,0.071-0.199,1.529-0.199,3.738
		c0.001,2.479,0.234,5.902,1.297,9.393c0.531,1.743,1.275,3.507,2.321,5.161c0.744,1.174,1.653,2.289,2.731,3.292l-1.209,0.006
		c-1.828-1.186-11.386-8.054-18.583-25.983c-2.464-6.143-3.792-14.882-5.195-24.135c-1.145-7.539-2.328-15.335-4.227-22.525
		c-1.712-6.476-4.852-10.762-6.975-13.071c0.255-0.017,0.529-0.026,0.818-0.026c2.542,0,5.217,0.713,7.948,2.119
		c5.244,2.696,10.278,11.326,10.769,12.184c0.163,0.38,0.547,1.135,1.479,1.135c0.002,0,0.004,0,0.007,0l0.67-0.005l0.437-0.504
		c0.465-0.536,0.4-1.025,0.27-1.999c-0.986-7.395-0.566-15.047,1.248-22.744c2.125-9.013-0.01-12.39-2.965-17.064
		c-1.066-1.686-2.274-3.598-3.457-6.074c-1.57-3.284-2.759-14.873,2.066-22.419c1.511-2.365,2.31-4.587,2.636-6.652
		c1.486,3.156,3.229,6.902,4.993,10.753c1.655,3.611,8.084,11.031,12.006,12.553c1.556,0.604,3.155,0.911,4.753,0.911
		c7.854,0,14.783-7.357,16.118-17.113c0.203-1.48,0.301-3.17,0.406-4.96c0.644-10.962,1.6-27.287,27.053-41.485
		c-2.376,5.434-6.039,16.079-1.375,26.407c2.456,5.442,6.768,13.012,15.827,15.911c1.897,0.607,3.754,0.916,5.521,0.916
		c8.062,0,13.271-6.159,13.271-15.689c0-8.547-1.535-13.76-5.252-16.899c6.256,1.412,15.815,5.702,15.815,16.473
		c0,7.325,0.972,14.64,2.736,20.597c1.27,4.28,3.399,9.382,6.344,9.381c1.023,0,2.41-0.585,3.21-3.369
		c0.923-3.211,2.059-5.788,3.061-8.061c2.165-4.913,3.921-8.894,2.426-15.768c5.417,5.335,17.754,23.602,13.599,42.413
		c-3.056,13.838-3.647,21.886,1.962,24.784c0.779,0.404,1.584,0.608,2.387,0.608c2.639,0,4.71-2.124,6.904-4.372
		c1.8-1.845,3.661-3.752,5.958-4.748c0.57-0.246,1.138-0.372,1.689-0.372c1.014,0,1.896,0.425,2.571,0.908
		c-3.956,1.948-11.315,7.659-8.293,22.522c3.133,15.382-7.156,26.001-9.252,27.974c-1.836,1.731-1.82,7.458-0.521,10.76
		c1.124,2.854,2.92,3.28,3.892,3.28l0,0c1.782,0,3.622-1.32,5.63-4.034c2.745-3.715,3.792-6.6,4.115-8.885
		c0.303,0.926,0.543,2.046,0.635,3.355C264.53,154.248,261.982,166.632,241.346,184.731z"/>
	<path fill="#FFFFFF" d="M185.549,152.977c0,0-4.021-2.125-5.102,0C179.366,155.104,184.93,155.838,185.549,152.977z"/>
	<path fill="#FFFFFF" d="M187.014,155.752c0,0-4.555,0.638-4.047,2.948C183.473,161.014,188.358,158.38,187.014,155.752z"/>
	<path fill="#FFFFFF" d="M189.356,157.115c0,0-3.616,2.7-1.966,4.465C189.042,163.35,191.899,158.759,189.356,157.115z"/>
	<path fill="#FFFFFF" d="M203.258,153.599c0,0,3.189,3.147,4.877,1.413C209.823,153.275,204.727,151.034,203.258,153.599z"/>
	<path fill="#FFFFFF" d="M202.434,156.158c0,0,0.524,4.339,2.977,3.932C207.86,159.683,205.241,154.967,202.434,156.158z"/>
	<path fill="#FFFFFF" d="M198.861,157.707c0,0-1.092,4.245,1.359,4.666C202.668,162.8,201.934,157.514,198.861,157.707z"/>
	<circle fill="#FFFFFF" cx="131.36" cy="97.453" r="3.325"/>
	<ellipse fill="#FFFFFF" cx="148.655" cy="82.49" rx="2.7" ry="2.641"/>
	<ellipse fill="#FFFFFF" cx="173.406" cy="76.72" rx="3.455" ry="3.128"/>
	<ellipse fill="#FFFFFF" cx="205.454" cy="80.925" rx="3.021" ry="2.836"/>
	<ellipse fill="#FFFFFF" cx="207.568" cy="96.964" rx="3.161" ry="2.835"/>
	<ellipse fill="#FFFFFF" cx="226.935" cy="106.647" rx="3.325" ry="3.129"/>
	<ellipse fill="#FFFFFF" cx="199.431" cy="110.656" rx="2.883" ry="2.64"/>
	<ellipse fill="#FFFFFF" cx="175.911" cy="105.219" rx="3.179" ry="2.797"/>
	<ellipse fill="#FFFFFF" cx="188.351" cy="91.096" rx="3.263" ry="3.031"/>
	<ellipse fill="#FFFFFF" cx="157.331" cy="94.274" rx="3.116" ry="3.179"/>
	<ellipse fill="#FFFFFF" cx="143.908" cy="107.771" rx="3.03" ry="2.886"/>
</g>
</svg>
