<?xml version="1.0" encoding="utf-8"?>
<!-- Generator: Adobe Illustrator 16.0.0, SVG Export Plug-In . SVG Version: 6.00 Build 0)  -->
<!DOCTYPE svg PUBLIC "-//W3C//DTD SVG 1.1//EN" "http://www.w3.org/Graphics/SVG/1.1/DTD/svg11.dtd">
<svg version="1.1" id="Capa_1" xmlns="http://www.w3.org/2000/svg" xmlns:xlink="http://www.w3.org/1999/xlink" x="0px" y="0px"
	 width="360px" height="300px" viewBox="0 0 360 300" enable-background="new 0 0 360 300" xml:space="preserve">
<g>
	<g>
		<path fill="#FFFFFF" d="M359.741,291.982l-10.511-26.917c1.791-1.418,3.354-3.457,4.753-6.197l0.059-0.116
			c0.354-0.719,0.636-1.506,0.94-2.638c0.385-1.453,0.748-3.316,1.105-5.698c0.896-5.98,1.658-14.843,1.811-21.075
			c0.029-1.269,0.104-2.819,0.193-4.664c0.165-3.392,0.371-7.611,0.372-12.097c-0.001-5.528-0.311-10.285-0.948-14.54
			c-0.271-1.826-0.821-3.465-1.632-4.866c-1.178-2.05-2.938-3.624-5.083-4.552c-1.581-0.687-3.366-1.034-5.313-1.036
			c-2.817,0.008-5.128,0.71-5.93,0.993c-0.975,0.299-1.794,0.997-2.249,1.915c-0.454,0.918-0.514,1.997-0.163,2.959l0.365,1.003
			c-5.202,1.183-13.059,3.413-23.381,6.637c-7.804,2.439-14.175,4.563-14.888,4.801l-0.565,0.19
			c-0.24,0.081-0.463,0.191-0.677,0.315c-0.684-0.853-1.717-1.408-2.888-1.408h-2.486c-2.047,0-3.713,1.667-3.728,3.722
			c-0.271-0.006-0.539,0.016-0.801,0.067l-48.864,9.438c-0.378,0.073-0.737,0.203-1.067,0.384c-0.555-0.323-1.192-0.502-1.856-0.502
			h-2.484c-2.057,0-3.729,1.683-3.729,3.75v1.179c-0.011-0.011-0.019-0.023-0.03-0.033c-0.772-0.705-1.756-1.062-2.87-0.954
			l-4.042,0.396c-5.24,0.505-18.19,1.726-25.28,2.156c-4.042,0.244-7.539,0.721-10.397,1.417c-3.121,0.765-5.518,1.784-7.33,3.12
			c-0.66,0.488-1.256,1.072-1.783,1.745c-0.414-1.146-0.955-2.156-1.629-3.047c-0.846-1.113-1.873-1.979-3.054-2.572
			c-1.123-0.564-2.373-0.862-3.617-0.862c-1.819,0-3.339,1.318-3.664,3.054c-0.03-0.014-0.061-0.027-0.092-0.041
			c-0.445-0.198-0.831-0.306-1.162-0.385c-0.835-0.197-1.918-0.334-3.744-0.473c-4.218-0.317-11.873-0.541-22.753-0.668
			c-8.303-0.097-15.691-0.099-16.508-0.099l-0.93,0.001c-0.235,0-0.467,0.021-0.691,0.064c-0.167-0.293-0.375-0.563-0.62-0.807
			c-0.681-0.675-1.574-1.049-2.646-1.079l-2.486,0.02c-0.647,0.005-1.27,0.183-1.814,0.499c-0.391-0.239-0.827-0.406-1.291-0.488
			l-17.033-3.005c-1.076-0.195-2.206,0.112-3.041,0.816c-0.845,0.711-1.333,1.754-1.336,2.863l-0.138,41.003
			c-0.407,0.055-0.916,0.097-1.545,0.135c0.188-0.448,0.293-0.941,0.293-1.458v-39.913c0-2.067-1.672-3.749-3.728-3.749h-2.485
			c-0.217,0-0.426,0.028-0.632,0.063c-0.119-1.352-0.952-2.549-2.203-3.103l-16.206-7.172c-0.677-0.299-1.43-0.387-2.149-0.261
			c-0.064-0.165-0.129-0.329-0.196-0.49c-0.854-2.052-1.904-3.708-3.216-5.066c-1.68-1.726-4.068-3.35-7.519-5.113
			c-3.428-1.744-7.774-3.53-12.917-5.308c-3.355-1.159-5.967-1.935-6.556-2.106l-25.301-8.787c-0.923-0.318-1.965-0.257-2.847,0.174
			c-0.895,0.438-1.567,1.202-1.892,2.147l-0.811,2.363c-0.485,1.417-0.075,2.931,0.926,3.912c-0.083,0.312-0.127,0.635-0.127,0.962
			v96.959c0,1.913,1.426,3.515,3.315,3.726l0.742,0.084c0.443,0.049,1.053,0.087,1.981,0.126c2.43,0.1,6.647,0.158,11.28,0.158
			c1.757,0,3.606-0.009,5.49-0.026l1.002-0.009c5.358-0.052,10.898-0.104,15.667-0.585c1.734-0.177,3.265-0.4,4.623-0.678
			c-0.125,0.405-0.183,0.835-0.161,1.278l0.023,2.316c0,2.047,1.657,3.729,3.711,3.749h0.032c0.77,0,2.36-0.177,4.354-1.358
			c2.098-1.237,4.126-3.265,6.03-6.028c0.774-1.128,1.439-2.396,2.003-3.821c0.709,1.004,1.531,1.735,2.284,2.342
			c0.633,0.496,1.2,0.705,1.544,0.831c0.556,0.19,1.071,0.285,1.554,0.359c0.477,0.073,1.052,0.137,1.738,0.192
			c0.002,0.017,0.004,0.033,0.007,0.05l0.353,2.474c0.261,1.83,1.869,3.211,3.741,3.211c0.14,0,0.282-0.009,0.417-0.023
			c0.079-0.008,0.295-0.018,0.66-0.018c0.973,0,2.57,0.065,4.261,0.135l1.433,0.058c2.519,0.099,5.524,0.199,8.713,0.199
			c7.648-0.003,13.69-0.589,18.477-1.793c3.359-0.85,6.054-1.98,8.235-3.459c0.878-0.593,1.671-1.249,2.372-1.961l0.008,2.222
			c0.007,2.061,1.679,3.736,3.741,3.736l23.621-0.084c2.048-0.007,3.716-1.688,3.716-3.749v-5.038
			c0.209,0.492,0.383,0.901,0.511,1.205l0.48,1.146c0.584,1.395,1.933,2.296,3.481,2.296l18.047-0.216
			c1.037-0.013,2.023-0.469,2.714-1.228l2.846,4.574c0.686,1.102,1.867,1.761,3.163,1.761c0.697,0,1.381-0.198,1.974-0.571
			l2.106-1.325c0.845-0.531,1.434-1.361,1.656-2.337c0.151-0.66,0.123-1.334-0.073-1.964c1.395,0.45,2.889,0.771,4.049,0.981
			c1.692,0.304,4.313,0.666,7.189,0.667c4.134,0,24.482-0.223,30.671-0.292l0.819-0.009c0.963-0.011,1.836-0.402,2.493-1.021v1.622
			c0,2.067,1.673,3.75,3.729,3.75h2.484c2.056,0,3.729-1.683,3.729-3.75v-0.192l47.741,0.088c0.388,0,0.76-0.076,1.119-0.189v0.294
			c0,2.067,1.672,3.75,3.728,3.75h2.486c2.056,0,3.728-1.683,3.728-3.75v-0.7c0.338,0.096,0.688,0.162,1.056,0.162l15.66-0.158
			v0.742c0,2.067,1.672,3.749,3.728,3.749h2.485c2.056,0,3.729-1.682,3.729-3.749V279.89c0.038,0.13,0.073,0.258,0.11,0.383
			c0.724,2.52,1.358,4.82,1.811,6.485l0.883,3.307c0.423,1.617,1.881,2.768,3.544,2.797l16.239,0.278
			c0.463-0.003,0.913-0.088,1.332-0.246l1.072,2.745c0.359,0.92,1.082,1.673,1.98,2.066c0.472,0.207,0.974,0.313,1.489,0.313
			c0.471,0,0.931-0.088,1.364-0.261l2.313-0.914C359.548,296.086,360.493,293.906,359.741,291.982z M281.148,267.142h-14.48
			l14.106-1.331C280.816,266.285,280.946,266.734,281.148,267.142z M261.142,240.072v-0.607l19.617-1.899v0.223
			c-0.245-0.02-0.493-0.015-0.745,0.014L261.142,240.072z M295.113,261.724h-2.486c-0.707,0-1.362,0.21-1.927,0.556v-20.471
			l5.431-2.027v22.103C295.806,261.789,295.469,261.724,295.113,261.724z M329.779,227.833c-0.021,0.769-0.103,1.864-0.304,3.404
			c-0.08,0.602-0.137,1.165-0.188,1.689c-0.035,0.346-0.104,1.039-0.176,1.473c-2.877,0.693-7.384,1.289-10.657,1.667v-5.596
			C321.282,229.761,326.63,228.437,329.779,227.833z M174.977,268.825c0.029,2.326,0.091,4.307,0.182,5.996
			c0.024,0.449,0.051,0.874,0.079,1.276l-3.132-5.034C173.196,270.359,174.146,269.619,174.977,268.825z M149.6,247.076
			c0.002,0.096,0.001,0.207-0.001,0.335c-0.005,0.264-0.007,0.523-0.009,0.862c-0.001,0.235-0.004,0.771-0.022,1.206
			c-2.77,0.298-7.05,0.387-9.863,0.411l0.112-2.53c2.425-0.156,6.013-0.295,8.77-0.295
			C149.047,247.065,149.373,247.07,149.6,247.076z M140.979,273.068c-0.391,0.084-0.76,0.229-1.096,0.427l-0.019-2.585
			C140.204,271.538,140.576,272.259,140.979,273.068z M34.146,263.892c-0.002,1.087-0.028,1.92-0.074,2.494
			c-2.666-0.094-7.323-0.728-10.136-1.254v-5.661c3.131,0.146,7.424,0.466,9.918,1.141c0.033,0.009,0.06,0.017,0.08,0.023
			C34.08,261.004,34.151,262.098,34.146,263.892z M24.083,231.373v-5.261c3.104,0.587,7.26,1.417,9.808,2.105
			c0.077,0.021,0.127,0.037,0.16,0.05c0.101,0.23,0.24,0.939,0.234,3.1c-0.003,1.009-0.038,1.676-0.079,2.111
			C31.58,233.191,26.854,232.136,24.083,231.373z M227.563,248.069H211.56c-2.056,0-3.728,1.682-3.728,3.749v17.668h-1.804
			c0.092-0.324,0.141-0.665,0.141-1.018v-20.404c0-0.004,0-0.006,0-0.01h21.394c0.981,0,1.868-0.39,2.534-1.015v2.045
			C229.431,248.46,228.544,248.069,227.563,248.069z"/>
		<path fill="#FFFFFF" d="M59.271,167.264h5.799c2.057,0,3.729-1.684,3.729-3.75v-37.672h0.994c2.056,0,3.728-1.682,3.728-3.75
			v-5.832c0-2.067-1.672-3.749-3.728-3.749H54.546c-1.738,0-3.202,1.202-3.613,2.823c-0.295-0.271-0.602-0.524-0.917-0.761
			c-0.851-0.634-1.772-1.132-2.734-1.478c-2.149-0.774-4.52-0.774-6.674,0.001c-1.608,0.581-3.063,1.559-4.33,2.91
			c-0.072,0.077-0.144,0.156-0.214,0.235c-0.184-1.896-1.777-3.383-3.71-3.383h-5.8c-0.803,0-1.547,0.256-2.156,0.692
			c-0.609-0.437-1.354-0.692-2.156-0.692h-5.799c-2.056,0-3.729,1.682-3.729,3.749v46.904c0,2.067,1.673,3.75,3.729,3.75h5.799
			c0.803,0,1.547-0.257,2.156-0.692c0.609,0.436,1.354,0.692,2.156,0.692h5.8c2.056,0,3.728-1.683,3.728-3.75v-1.031
			c0.55,0.614,1.147,1.161,1.799,1.647c0.851,0.633,1.77,1.129,2.728,1.473c2.148,0.776,4.522,0.781,6.673,0.002
			c1.609-0.581,3.065-1.558,4.331-2.909c1.461-1.569,2.595-3.559,3.372-5.915c0.22-0.673,0.406-1.361,0.557-2.066v8.801
			C55.542,165.58,57.215,167.264,59.271,167.264z"/>
		<path fill="#FFFFFF" d="M15.319,182.744h54.474c2.056,0,3.728-1.683,3.728-3.75v-5.832c0-2.068-1.672-3.75-3.728-3.75H15.319
			c-2.056,0-3.729,1.682-3.729,3.75v5.832C11.59,181.062,13.263,182.744,15.319,182.744z"/>
		<path fill="#FFFFFF" d="M15.319,110.582h54.474c2.056,0,3.728-1.682,3.728-3.749V101c0-2.067-1.672-3.749-3.728-3.749H15.319
			c-2.056,0-3.729,1.682-3.729,3.749v5.833C11.59,108.9,13.263,110.582,15.319,110.582z"/>
		<path fill="#FFFFFF" d="M288.903,113.805h49.01c2.057,0,3.729-1.682,3.729-3.749v-5.833c0-2.067-1.673-3.749-3.729-3.749h-49.01
			c-2.056,0-3.729,1.682-3.729,3.749v5.833C285.175,112.123,286.848,113.805,288.903,113.805z"/>
		<path fill="#FFFFFF" d="M337.804,171.398h-49.05c-2.056,0-3.729,1.682-3.729,3.749v5.833c0,2.067,1.674,3.749,3.729,3.749h49.05
			c2.056,0,3.728-1.682,3.728-3.749v-5.833C341.531,173.08,339.859,171.398,337.804,171.398z"/>
		<path fill="#FFFFFF" d="M288.409,168.896l5.789,0.187l0.126,0.002c1.085,0,2.057-0.457,2.736-1.194
			c0.053,0.056,0.106,0.109,0.16,0.161c0.694,0.66,1.612,1.023,2.583,1.023l5.882-0.169c0.643-0.018,1.235-0.216,1.756-0.521
			c0.67,0.646,1.575,1.049,2.574,1.049h13.926c1.511,0,2.807-0.911,3.393-2.213c0.581,1.313,1.885,2.233,3.402,2.233h5.8
			c2.057,0,3.729-1.683,3.729-3.75v-46.609c0-2.067-1.672-3.749-3.729-3.749h-5.8c-2.056,0-3.728,1.682-3.728,3.749v38.633
			c-0.673-0.98-1.796-1.626-3.067-1.626h-4.398v-37.007c0-2.067-1.672-3.75-3.729-3.75h-5.799c-2.056,0-3.729,1.683-3.729,3.75
			v6.207l-5.919-9.69c-0.679-1.112-1.859-1.78-3.187-1.787c-1.265,0-2.47,0.673-3.146,1.755l-7.531,12.056
			c-0.349,0.563-0.547,1.211-0.567,1.873l-1.135,35.52c-0.032,1.001,0.325,1.954,1.007,2.686
			C286.489,168.443,287.413,168.863,288.409,168.896z"/>
		<path fill="#FFFFFF" d="M80.684,108.379c0.049,0.039,4.977,3.987,7.099,12.024c1.788,6.77,2.925,14.262,4.026,21.521
			c1.421,9.374,2.764,18.227,5.402,24.807c8.464,21.092,20.261,27.95,20.759,28.231c0.517,0.293,1.113,0.454,1.849,0.482
			l2.301-0.012c1.513,0.917,3.236,1.733,5.251,2.487c3.874,1.442,8.657,2.614,14.624,3.581c6.641,1.072,14.526,1.84,23.436,2.281
			c7.063,0.35,12.764,0.388,14.891,0.388l1.752,0.001c3.596-0.001,13.08-0.126,23.445-1.243c6.138-0.662,11.569-1.572,16.146-2.703
			c6.031-1.5,10.589-3.356,13.935-5.678c1.486-1.034,2.825-2.233,4.093-3.663c30.617-25.256,28.938-42.045,26.791-48.097
			c-0.518-1.459-2.522-6.248-6.222-6.168c2.872-6.046,4.345-13.394,2.726-21.354c-2.926-14.396,6.094-16.744,6.458-16.832
			c1.211-0.274,2.204-1.133,2.655-2.298c0.45-1.164,0.297-2.472-0.412-3.497c-0.315-0.46-3.236-4.485-8.16-4.485
			c-1.246,0-2.491,0.266-3.7,0.789c-3.18,1.379-5.463,3.72-7.477,5.784c-0.862,0.884-2.448,2.51-3.032,2.713
			c-0.005-0.002-0.011-0.005-0.018-0.008c-2.989-1.546-0.359-13.453,0.761-18.537c4.636-20.999-9.145-39.628-11.953-43.148
			c-4.379-5.488-6.652-6.192-8.145-6.192c-1.299,0-2.481,0.592-3.246,1.623c-0.591,0.794-1.165,2.171-0.56,4.221
			c1.88,6.358,0.588,9.295-1.556,14.158c-0.632,1.435-1.314,2.984-1.977,4.754c-1.501-4.169-3.167-11.441-3.167-20.823
			c0-16.397-17.149-21.915-24.972-21.915c-3.871,0-4.997,1.88-5.261,3.456c-0.133,0.788-0.286,3.459,3.278,4.699
			c3.435,1.193,6.278,3.085,6.278,14.177c0,6.372-2.927,10.177-7.83,10.177c-1.196,0-2.487-0.219-3.838-0.651
			c-6.91-2.213-10.364-8.357-12.362-12.786c-4.347-9.629,0.504-19.871,2.329-23.727c0.805-1.699,1.565-3.305,0.408-5.15
			c-0.692-1.104-1.884-1.765-3.188-1.767c-0.575,0-1.21,0.153-1.738,0.42c-30.993,15.663-32.137,35.179-32.822,46.864
			c-0.1,1.711-0.186,3.188-0.357,4.432c-0.941,6.887-5.628,12.281-10.665,12.281c-0.926,0-1.866-0.183-2.794-0.543
			c-2.054-0.798-7.644-6.826-8.926-9.627c-2.045-4.468-4.297-9.302-6.178-13.262c-3.616-7.615-3.833-8.071-6.284-8.071
			c-1.248,0-2.406,0.622-3.101,1.666c-1.12,1.683-0.454,3.306-0.203,3.918c1.49,3.627,1.934,6.901-0.745,11.096
			c-5.807,9.086-4.627,22.223-2.335,27.024c1.29,2.703,2.56,4.713,3.683,6.489c2.62,4.146,3.815,6.038,2.236,12.734
			c-0.978,4.153-1.575,8.324-1.785,12.45c-1.84-1.88-3.647-3.281-5.402-4.185c-3.411-1.757-6.823-2.647-10.139-2.647
			c-3.042,0-4.942,0.77-5.29,0.923c-1.204,0.527-2.051,1.674-2.208,2.99C79.092,106.267,79.646,107.583,80.684,108.379z
			 M253.531,150.422c-0.25,0.34-0.476,0.621-0.677,0.857c-0.352-1.688-0.238-3.478-0.091-4.121c1.339-1.303,2.655-2.805,3.882-4.48
			C256.722,144.453,256.285,146.695,253.531,150.422z"/>
	</g>
	<g>
		<path fill="#673631" d="M50.65,285.927c0.922-1.303,1.414-2.971,1.697-5.016c0.279-2.049,0.349-4.496,0.349-7.408
			c0-1.027-0.008-2.113-0.02-3.259c-0.003-0.255-0.004-0.51-0.004-0.764c-0.001-3.141,0.187-6.235,0.188-8.862
			c0-1.159-0.037-2.229-0.147-3.183c-0.112-0.956-0.292-1.798-0.624-2.518c-1.054-2.271-2.794-3.939-4.257-5.058
			c-0.47-0.357-0.907-0.653-1.294-0.897c0.472-0.254,1.021-0.562,1.592-0.916c0.785-0.486,1.608-1.053,2.322-1.679
			c0.71-0.63,1.326-1.305,1.66-2.118c0.427-1.075,0.668-2.431,0.82-3.93c0.15-1.496,0.201-3.129,0.201-4.706
			c0-2.984-0.186-5.778-0.257-6.989c-0.204-3.432-0.095-6.417-0.568-9.315c-0.468-2.894-1.572-5.688-4.117-8.508
			c-0.727-0.799-1.878-1.581-3.393-2.445c-2.646-1.501-6.384-3.181-10.526-4.874c-12.421-5.073-28.45-10.23-28.46-10.234
			l-1.081-0.347v96.959l0.736,0.082c0.375,0.041,0.949,0.075,1.725,0.107c2.319,0.095,6.39,0.154,11.129,0.154
			c1.747,0,3.583-0.008,5.455-0.026c5.543-0.053,11.438-0.081,16.329-0.575c2.448-0.249,4.644-0.61,6.447-1.172
			C48.348,287.863,49.79,287.119,50.65,285.927z M38.012,231.379c-0.01,3.42-0.306,5.049-1.831,5.809
			c-1.527,0.758-15.218-2.432-15.827-3.188v-12.377c0,0,9.742,1.688,14.503,2.975C37.879,225.413,38.021,228.068,38.012,231.379z
			 M20.207,255.599c0,0,9.855,0.105,14.617,1.392c3.025,0.819,3.061,3.598,3.05,6.909c-0.008,3.418-0.161,5.319-1.686,6.078
			c-1.526,0.76-15.37-1.242-15.98-2.004V255.599z"/>
		<path fill="#673631" d="M81.947,289.113c4.845,0,9.959-0.074,14.024-0.186c2.033-0.056,3.802-0.12,5.149-0.189
			c0.674-0.035,1.242-0.071,1.688-0.109c0.453-0.04,0.759-0.071,1.015-0.129h-0.001c1.316-0.31,2.709-0.851,3.902-1.566
			c0.595-0.359,1.141-0.762,1.601-1.217c0.458-0.456,0.836-0.964,1.06-1.552c0.067-0.181,0.109-0.36,0.151-0.574
			c0.149-0.787,0.255-2.052,0.346-3.754c0.268-5.085,0.35-13.95,0.35-22.917c0-14.153-0.204-28.542-0.204-28.544l-0.01-0.689
			l-17.036-3.006l-0.136,41.875v0.001c0.002,0.021-0.01,0.492-0.156,0.985c-0.071,0.247-0.174,0.497-0.307,0.701
			c-0.134,0.205-0.29,0.363-0.483,0.473c-0.577,0.323-1.206,0.519-2.188,0.657c-0.978,0.139-2.285,0.207-4.11,0.279
			c-2.546,0.104-4.891,0.062-6.843,0.154l-0.089,0.003c-0.316-0.005-0.469-0.073-0.604-0.174c-0.1-0.076-0.196-0.189-0.286-0.36
			c-0.282-0.508-0.401-1.522-0.419-2.535c-0.01-0.384-0.018-1.97-0.025-4.295c-0.021-6.989-0.025-20.79-0.025-30.398
			c0-3.02,0-5.626,0-7.478c0.001-1.851,0.001-2.944,0.001-2.947v-0.544l-16.205-7.172l0.008,1.286c0,0,0.11,16.421,0.267,33.112
			c0.078,8.347,0.167,16.76,0.26,23.224c0.046,3.233,0.092,5.978,0.14,7.985c0.023,1.004,0.047,1.822,0.07,2.43
			c0.012,0.305,0.023,0.556,0.036,0.753c0.014,0.202,0.022,0.332,0.044,0.472c0.21,1.246,0.455,2.161,0.894,2.959
			c0.439,0.798,1.05,1.407,1.844,2.049c0.176,0.138,0.312,0.188,0.453,0.239c0.262,0.09,0.548,0.146,0.908,0.202
			c1.24,0.187,3.322,0.307,5.937,0.385C75.579,289.08,78.702,289.113,81.947,289.113z"/>
		<path fill="#673631" d="M160.415,265.348c1.786-0.36,3.913-1.039,5.522-2.493c1.438-1.304,2.185-2.991,2.558-4.811
			c0.375-1.822,0.404-3.804,0.405-5.863c0-0.499-0.002-1.003-0.002-1.509c0-2.671,0.15-5.911,0.151-8.876
			c-0.001-2.196-0.08-4.237-0.387-5.845c-0.218-1.135-0.486-2.118-1.089-2.99c-0.602-0.874-1.5-1.548-2.779-2.127
			c-0.165-0.074-0.321-0.117-0.499-0.161c-0.682-0.16-1.74-0.275-3.171-0.385c-4.98-0.373-14.244-0.561-22.52-0.656
			c-8.271-0.097-15.536-0.1-16.463-0.1h-0.101l-0.827,0.001v0.832v59.001h15.055l-0.168-23.351c0.987-0.095,2.765-0.244,3.968-0.243
			c0.309,0,0.577,0.01,0.764,0.03c0.086,0.008,0.149,0.019,0.189,0.027c0.047,0.035,0.171,0.154,0.323,0.352
			c0.324,0.409,0.765,1.098,1.255,1.96c1.726,3.031,4.133,8.229,6.093,12.646c0.983,2.21,1.854,4.229,2.481,5.693
			c0.313,0.731,0.566,1.327,0.74,1.737c0.173,0.411,0.266,0.638,0.268,0.638l0.216,0.518l18.047-0.216l-12.271-23.5
			C158.787,265.607,159.562,265.517,160.415,265.348z M150.503,253.145c-4.867,0.61-14.7,0.497-14.7,0.497l0.433-9.633
			c1.067-0.471,12.597-0.837,14.268-0.636c1.756,0.211,2.878,1.058,2.823,4.105C153.276,250.348,153.593,252.754,150.503,253.145z"
			/>
		<path fill="#673631" d="M223.511,226.17c-5.832,0.563-18.39,1.74-25.413,2.166c-3.899,0.235-7.132,0.683-9.738,1.317
			c-2.606,0.639-4.592,1.457-6.002,2.496c-0.808,0.599-1.405,1.406-1.848,2.299c-0.665,1.343-1.007,2.893-1.197,4.405
			c-0.188,1.515-0.22,2.996-0.22,4.187c0,0.874-0.102,4.049-0.204,8.169c-0.103,4.126-0.204,9.222-0.204,14.016
			c0,3.44,0.051,6.725,0.197,9.394c0.071,1.335,0.166,2.516,0.292,3.495c0.129,0.982,0.273,1.747,0.503,2.337
			c0.74,1.863,1.275,3.313,1.988,4.515c0.704,1.201,1.646,2.143,3.011,2.77c1.137,0.527,2.871,1.004,4.902,1.373
			c2.027,0.363,4.332,0.607,6.535,0.607c4.695,0,30.628-0.292,30.63-0.292l0.819-0.009v-37.596H211.56v21.417h-15.128v-28.93h31.131
			v-18.531l-0.91,0.09C226.649,225.864,225.455,225.982,223.511,226.17z"/>
		<polygon fill="#673631" points="256.856,264.302 280.456,262.074 280.456,261.315 280.456,241.525 257.413,244.298 
			257.413,236.06 288.801,233.02 288.801,212.462 239.939,221.9 239.939,289.822 287.78,289.91 287.78,270.892 256.856,270.892 		
			"/>
		<path fill="#673631" d="M336.59,257.367c1.31-0.001,3.137-0.063,4.834-0.355c0.849-0.148,1.666-0.353,2.389-0.658
			c0.718-0.308,1.365-0.711,1.797-1.354c0.232-0.356,0.396-0.774,0.561-1.295c0.304-0.972,0.573-2.294,0.83-3.911
			c0.895-5.644,1.603-14.849,2.091-23.284c0.488-8.437,0.755-16.065,0.755-18.556c0-0.182-0.001-0.339-0.004-0.47
			c-0.04-1.555-0.024-3.99-0.681-6.145c-0.333-1.077-0.842-2.107-1.678-2.894c-0.832-0.787-2.001-1.272-3.41-1.266
			c-0.168,0-0.34,0.006-0.515,0.02c-1.104,0.081-2.569,0.336-4.328,0.715c-6.142,1.327-15.822,4.208-23.993,6.76
			c-8.166,2.552-14.809,4.775-14.812,4.776l-0.566,0.19v0.6v79.236l16.004-0.161l-0.308-26.78c0.041-0.005,0.075-0.01,0.12-0.015
			c1.58-0.185,5.016-0.553,6.771-0.551c0.287-0.001,0.526,0.01,0.681,0.028c0.027,0.003,0.05,0.006,0.071,0.01
			c0.059,0.068,0.155,0.199,0.26,0.378c0.287,0.479,0.656,1.279,1.055,2.278c1.403,3.509,3.222,9.491,4.677,14.567
			c0.73,2.54,1.369,4.859,1.827,6.543c0.229,0.842,0.412,1.524,0.539,1.995c0.126,0.473,0.193,0.732,0.193,0.732l0.159,0.61
			l16.203,0.277l-12.044-32.026C336.23,257.365,336.402,257.367,336.59,257.367z M314.726,240.229v-12.693
			c0.992-0.208,15.851-4.135,17.447-3.731c1.676,0.422,1.483,4.233,0.998,7.922c-0.453,3.468-0.102,5.564-3.079,6.293
			C324.853,239.302,314.726,240.229,314.726,240.229z"/>
		<rect x="82.649" y="224.435" fill="#673631" width="2.485" height="39.913"/>
		<path fill="#673631" d="M114.797,227.731c0,0.002,0.005,0.612,0.012,1.711c0.022,3.294,0.064,10.963,0.064,19.569
			c0,7.599-0.034,15.931-0.144,22.624c-0.055,3.346-0.13,6.284-0.229,8.507c-0.049,1.11-0.105,2.043-0.166,2.748
			c-0.03,0.352-0.063,0.647-0.093,0.872c-0.03,0.222-0.063,0.383-0.074,0.414c-0.462,1.597-1.506,2.884-3.125,3.989
			c-2.417,1.649-6.096,2.741-10.234,3.365c-4.138,0.632-8.729,0.821-13.01,0.821c-3.071,0-5.984-0.097-8.469-0.194
			c-2.488-0.098-4.537-0.196-5.936-0.197c-0.598,0.002-1.067,0.015-1.481,0.072l0.354,2.475c0.175-0.026,0.588-0.048,1.127-0.047
			c1.29,0,3.346,0.097,5.839,0.195c2.497,0.098,5.443,0.195,8.566,0.195c5.808-0.002,12.216-0.333,17.569-1.679
			c2.678-0.677,5.102-1.604,7.066-2.937c1.958-1.322,3.474-3.102,4.122-5.367c0.068-0.241,0.108-0.477,0.148-0.765
			c0.144-1.062,0.246-2.834,0.333-5.194c0.257-7.059,0.323-19.199,0.323-29.898c0-11.486-0.076-21.298-0.076-21.3L114.797,227.731z"
			/>
		<polygon fill="#673631" points="141.756,291.023 120.611,291.098 120.621,293.598 144.24,293.514 144.24,276.737 141.756,276.737 
					"/>
		<path fill="#673631" d="M169.864,268.053c1.151-0.722,2.344-1.629,3.331-2.771c0.98-1.138,1.765-2.542,1.965-4.193
			c0.718-5.959,0.743-7.853,0.784-13.214c0.005-0.537,0.008-1.052,0.008-1.546c0-4.903-0.204-7.777-0.335-10.047
			c-0.165-2.838-0.824-4.825-1.846-6.177c-0.51-0.672-1.114-1.172-1.759-1.495c-0.642-0.323-1.315-0.466-1.949-0.466l-0.003,2.499
			c0.272,0.001,0.555,0.06,0.842,0.204c0.43,0.218,0.907,0.636,1.34,1.505c0.431,0.866,0.788,2.185,0.894,4.072
			c0.131,2.297,0.33,5.065,0.33,9.904c0,0.487-0.003,0.994-0.008,1.526c-0.045,5.387-0.057,7.015-0.766,12.933
			c-0.123,1.028-0.62,1.977-1.377,2.856c-1.128,1.318-2.828,2.404-4.241,3.12c-0.706,0.36-1.338,0.631-1.787,0.812
			c-0.227,0.09-0.406,0.156-0.526,0.199l-0.136,0.049l-0.03,0.01l-0.007,0.003l-1.51,0.496l16.131,25.931l2.106-1.325
			l-14.492-23.297C167.649,269.283,168.738,268.757,169.864,268.053z"/>
		<rect x="199.955" y="248.064" fill="#673631" width="2.484" height="20.404"/>
		<rect x="233.826" y="221.851" fill="#673631" width="2.484" height="71.914"/>
		<rect x="292.627" y="265.473" fill="#673631" width="2.486" height="28.292"/>
		<polygon fill="#673631" points="292.627,234.424 284.487,237.463 284.487,265.473 286.973,265.473 286.973,239.2 295.113,236.162 
			295.113,208.74 292.627,208.74 		"/>
		<rect x="319.284" y="268.888" fill="#673631" width="2.485" height="24.923"/>
		<path fill="#673631" d="M344.574,263.398c0.607-0.206,1.293-0.512,1.999-1.017c1.34-0.949,2.719-2.535,4.102-5.239l0.01-0.021
			l-0.012,0.022c0.279-0.547,0.492-1.199,0.707-1.997c0.369-1.39,0.707-3.205,1.021-5.292c0.938-6.25,1.631-14.888,1.77-20.604
			c0.09-3.8,0.564-9.926,0.564-16.671c0-4.53-0.213-9.351-0.906-13.984c-0.208-1.395-0.61-2.572-1.173-3.546
			c-0.841-1.464-2.056-2.434-3.333-2.985c-1.28-0.556-2.612-0.729-3.826-0.729c-2.634,0.007-4.772,0.806-4.85,0.83l0.797,2.188
			l0.058,0.159l0,0l0,0c0.048-0.022,1.941-0.683,3.995-0.677c1.308-0.002,2.636,0.262,3.655,0.979
			c0.515,0.359,0.97,0.83,1.355,1.493c0.383,0.663,0.693,1.525,0.863,2.661c0.667,4.456,0.879,9.161,0.879,13.612
			c0,6.638-0.469,12.688-0.564,16.609c-0.102,4.253-0.527,10.266-1.13,15.585c-0.302,2.659-0.647,5.147-1.016,7.146
			c-0.185,0.999-0.374,1.876-0.562,2.579c-0.185,0.703-0.379,1.239-0.515,1.498l-0.004,0.008c-1.26,2.462-2.396,3.68-3.319,4.334
			c-0.931,0.651-1.67,0.801-2.509,0.992l-1.41,0.322l12.737,32.613l2.313-0.914L344.574,263.398z"/>
		<path fill="#673631" d="M59.183,215.867c-0.316-1.629-0.75-3.228-1.36-4.695c-0.609-1.467-1.394-2.808-2.44-3.892
			c-1.554-1.597-3.881-3.032-6.539-4.391c-3.981-2.026-8.703-3.813-12.446-5.107c-3.498-1.208-6.133-1.979-6.473-2.078
			l-25.387-8.816l-0.811,2.363l25.445,8.837l0.031,0.009c0.001,0,0.072,0.021,0.213,0.061c1.059,0.313,5.931,1.777,11.147,3.812
			c2.607,1.017,5.3,2.177,7.629,3.394c2.328,1.212,4.298,2.505,5.408,3.662c0.758,0.781,1.405,1.851,1.928,3.11
			c0.787,1.891,1.287,4.196,1.577,6.5c0.292,2.305,0.379,4.607,0.379,6.511c0,1.357-0.044,2.512-0.088,3.324
			c-0.021,0.406-0.044,0.727-0.06,0.943c-0.008,0.108-0.015,0.19-0.02,0.246l-0.007,0.077l-0.006,0.06l0.001,0.061v0.078
			c0,0.504-0.007,3.419-0.167,6.597c-0.08,1.589-0.197,3.243-0.368,4.683c-0.085,0.719-0.183,1.384-0.294,1.952
			c-0.109,0.566-0.234,1.041-0.35,1.353c-0.584,1.564-1.295,2.444-1.821,2.94c-0.264,0.246-0.483,0.396-0.622,0.479l-0.142,0.078
			l-0.013,0.006l-2.705,1.014l2.621,1.273l0.001,0.001c0.13,0.061,1.968,1.061,3.111,3.187c0.085,0.149,0.221,0.539,0.322,1.06
			c0.158,0.785,0.268,1.869,0.333,3.086c0.065,1.218,0.088,2.574,0.088,3.939c0,2.827-0.096,5.683-0.097,7.556
			c0,0.395,0.005,0.747,0.016,1.055c0.034,0.941,0.053,1.888,0.053,2.833c0.001,3.178-0.212,6.33-0.738,9.119
			c-0.524,2.79-1.371,5.207-2.552,6.917c-1.706,2.474-3.132,3.641-4.063,4.191c-0.466,0.274-0.812,0.396-1.02,0.453
			c-0.104,0.029-0.174,0.039-0.209,0.045l-0.023,0.002l0.027,0.446v2.053h0.002c0.253,0.002,1.178-0.072,2.48-0.844
			c1.305-0.771,2.984-2.218,4.848-4.924c1.474-2.147,2.382-4.871,2.951-7.874c0.566-3.004,0.781-6.296,0.782-9.585
			c0-0.978-0.019-1.955-0.054-2.924c-0.009-0.262-0.014-0.589-0.014-0.964c0-1.796,0.096-4.68,0.097-7.556
			c-0.001-1.858-0.04-3.718-0.177-5.32c-0.068-0.803-0.161-1.541-0.293-2.199c-0.135-0.659-0.295-1.234-0.577-1.762
			c-0.793-1.449-1.779-2.473-2.599-3.152c0.771-0.76,1.646-1.953,2.314-3.753c0.19-0.516,0.335-1.097,0.463-1.75
			c0.438-2.273,0.646-5.435,0.759-8.187c0.11-2.746,0.116-5.06,0.116-5.523v-0.035c0.028-0.329,0.179-2.179,0.179-4.754
			C59.97,222.505,59.813,219.123,59.183,215.867z"/>
	</g>
	<g>
		<polygon fill="#673631" points="16.443,116.608 16.443,140.06 16.443,163.513 22.242,163.513 22.242,142.977 26.555,142.977 
			26.555,163.513 32.354,163.513 32.354,116.608 26.555,116.608 26.555,137.144 22.242,137.144 22.242,116.608 		"/>
		<polygon fill="#673631" points="65.07,163.514 65.07,122.092 69.793,122.092 69.793,116.26 54.546,116.26 54.546,122.092 
			59.271,122.092 59.271,163.514 		"/>
		<path fill="#673631" d="M40.096,161.113c0.53,0.394,1.122,0.726,1.773,0.96c0.649,0.234,1.357,0.366,2.077,0.365
			c0.72,0.001,1.429-0.131,2.078-0.365c1.142-0.411,2.092-1.114,2.867-1.941c1.163-1.249,1.982-2.794,2.552-4.522
			c0.565-1.729,0.87-3.656,0.871-5.694v-21.133c-0.009-3.104-0.691-5.948-1.985-8.241c-0.653-1.144-1.472-2.163-2.531-2.955
			c-0.53-0.394-1.122-0.727-1.773-0.961c-0.649-0.233-1.358-0.365-2.078-0.365c-0.721,0-1.428,0.132-2.077,0.365
			c-1.142,0.413-2.092,1.115-2.867,1.942c-1.161,1.25-1.981,2.793-2.551,4.521c-0.566,1.729-0.869,3.656-0.871,5.693v21.133
			c0.009,3.107,0.691,5.95,1.985,8.243C38.219,159.302,39.037,160.321,40.096,161.113z M41.379,128.782
			c-0.007-2.198,0.535-4.159,1.219-5.344c0.336-0.595,0.697-0.981,0.945-1.162c0.125-0.093,0.218-0.137,0.278-0.159l0.124-0.025
			l0.125,0.025c0.104,0.036,0.321,0.153,0.599,0.448c0.415,0.437,0.912,1.26,1.264,2.347c0.356,1.087,0.58,2.426,0.58,3.87v21.133
			c0.008,2.201-0.535,4.161-1.219,5.347c-0.335,0.594-0.696,0.979-0.944,1.161c-0.125,0.092-0.218,0.137-0.279,0.158l-0.125,0.025
			l-0.124-0.025c-0.103-0.036-0.321-0.153-0.598-0.449c-0.415-0.436-0.913-1.258-1.264-2.346c-0.357-1.086-0.581-2.427-0.581-3.871
			V128.782z"/>
		<rect x="15.319" y="173.162" fill="#673631" width="54.474" height="5.832"/>
		<rect x="15.319" y="101" fill="#673631" width="54.474" height="5.833"/>
	</g>
	<g>
		<rect x="288.903" y="104.223" fill="#673631" width="49.01" height="5.833"/>
		<rect x="288.754" y="175.147" fill="#673631" width="49.05" height="5.833"/>
		<path fill="#673631" d="M294.938,146.143h4.298l0.547,19.183l5.797-0.168l-1.012-35.509l-7.375-12.074l-7.53,12.055l-1.135,35.519
			l5.796,0.188L294.938,146.143z M295.408,131.395l1.729-2.767l1.678,2.746l0.255,8.936h-3.945L295.408,131.395z"/>
		<polygon fill="#673631" points="310.016,119.095 310.016,165.684 323.941,165.684 323.941,159.852 315.814,159.852 
			315.814,119.095 		"/>
		<rect x="330.736" y="119.095" fill="#673631" width="5.8" height="46.609"/>
	</g>
	<linearGradient id="SVGID_1_" gradientUnits="userSpaceOnUse" x1="82.9473" y1="97.7227" x2="268.626" y2="97.7227">
		<stop  offset="0" style="stop-color:#EFD44B"/>
		<stop  offset="0.9816" style="stop-color:#CD5534"/>
		<stop  offset="1" style="stop-color:#CD5534"/>
	</linearGradient>
	<path fill="url(#SVGID_1_)" d="M260.183,140.673c0.356,2.561,0.753,6.013-3.659,11.986c-7.538,10.204-8.855-5.831-6.675-7.888
		c4.969-4.683,12.231-15.258,9.485-28.754c-3.718-18.295,9.292-21.241,9.292-21.241s-2.954-4.282-7.32-2.391
		c-6.054,2.625-9.07,10.78-13.709,8.381c-4.634-2.396-4.007-9.844-1.173-22.685c5.594-25.341-18.59-50.173-16.691-43.752
		c3.282,11.098-1.759,14.297-4.784,24.828c-2.304,8.025-9.217-6.497-9.217-25.671c0-19.177-27.916-19.359-22.008-17.304
		c5.909,2.054,8.788,6.331,8.788,17.721c0,10.787-7.172,16.095-16.527,13.098c-8.379-2.684-12.398-9.87-14.627-14.81
		c-6.294-13.946,3.711-28.442,2.947-28.443c0,0,0,0-0.001,0c-0.016,0-0.037,0.007-0.063,0.021
		c-33.639,17-29.753,38.184-31.16,48.457c-1.406,10.272-9.815,18.097-18.496,14.724c-3.306-1.283-9.426-8.183-10.971-11.556
		c-4.96-10.838-10.003-21.36-8.932-18.749c1.407,3.424,2.882,8.39-1.055,14.555c-4.883,7.64-3.98,19.457-2.11,23.374
		c4.353,9.121,8.862,10.358,6.186,21.711c-3.644,15.465-0.416,25.549-1.334,23.324c0,0-5.344-9.582-11.181-12.586
		c-7.333-3.775-12.24-1.624-12.24-1.624s5.907,4.451,8.439,14.041c4.146,15.695,4.83,34.781,9.283,45.887
		c8.066,20.104,19.13,26.368,19.13,26.368l3.399-0.02c-0.145-0.098-0.302-0.19-0.442-0.292c-1.692-1.235-3.02-2.749-4.044-4.368
		c-1.025-1.623-1.753-3.35-2.274-5.059c-1.04-3.42-1.268-6.772-1.27-9.202c0-2.164,0.187-3.594,0.196-3.663l0.104-0.786
		c-0.283-0.22-0.557-0.449-0.811-0.7c-1.627-1.603-2.639-3.831-2.638-6.286c0-2.097,0.742-4.025,1.972-5.543
		c-0.564,0.02-1.137,0.034-1.727,0.034c-0.559-0.002-1.026-0.061-1.443-0.214c-0.411-0.148-0.793-0.428-1.007-0.828
		c-0.141-0.263-0.199-0.553-0.198-0.818c0.003-0.42,0.122-0.795,0.286-1.158c0.165-0.363,0.384-0.718,0.634-1.073
		c0.502-0.706,1.14-1.412,1.771-2.055c1.264-1.281,2.505-2.294,2.519-2.305l0.228-0.188h1.148c-0.604-0.44-1.163-0.952-1.654-1.539
		c-1.604-1.914-2.576-4.523-2.577-7.39c0.001-2.865,0.973-5.475,2.577-7.389c0.09-0.107,0.189-0.203,0.284-0.306
		c-0.051-0.335-0.101-0.672-0.149-1.008c-0.447-3.131-0.773-6.244-0.948-8.053l-0.278-1.155c-0.032-0.137-0.965-4.046-0.967-9.826
		c0.001-4.57,0.585-10.321,2.721-16.28c2.13-5.954,5.843-12.118,12.005-17.343c4.104-3.484,9.28-6.546,15.736-8.893
		c8.612-3.133,19.491-5.006,33.244-5.007c1.78,0,3.606,0.032,5.483,0.097c14.896,0.51,26.335,3.028,35.119,6.825
		c8.781,3.791,14.893,8.889,19,14.412c2.741,3.678,4.591,7.53,5.803,11.273c1.617,4.994,2.108,9.788,2.108,13.807
		c-0.003,6.374-1.229,10.803-1.31,11.103c0.541,0.399,0.995,0.854,1.335,1.362c0.617,0.917,0.893,1.965,0.891,2.998
		c-0.007,1.991-0.967,3.947-2.457,5.305c-0.142,0.131-0.291,0.234-0.438,0.344c0.106,0.115,0.217,0.225,0.318,0.345
		c1.604,1.914,2.577,4.523,2.578,7.389c-0.001,2.866-0.974,5.478-2.578,7.39c-0.734,0.879-1.615,1.603-2.591,2.139h1.46l0.246,0.271
		c2.305,2.539,3.343,5.066,3.346,7.287c0.002,0.701-0.109,1.365-0.313,1.983c0.619,1.205,0.976,2.563,0.976,4.006
		c0,2.333-0.922,4.457-2.411,6.039l0.153,1.835c0.004,0.05,0.049,0.603,0.049,1.521c0,1.46-0.11,3.843-0.696,6.6
		c-0.586,2.755-1.646,5.896-3.597,8.823c-0.465,0.699-1.003,1.377-1.576,2.039C277.777,154.741,259.782,137.85,260.183,140.673z"/>
	<g>
		<path fill="none" d="M171.463,148.769c0.203,0.574,0.458,1.363,0.729,2.352c-0.081-0.838-0.122-1.628-0.14-2.352H171.463z"/>
		<path fill="#DFA555" d="M119.311,172.756c-0.001,1.616,0.12,3.699,0.551,5.839c0.428,2.14,1.168,4.327,2.346,6.185
			c0.786,1.241,1.758,2.339,2.984,3.236c1.193,0.875,2.881,1.726,4.916,2.483c2.034,0.758,4.416,1.432,7.006,2.017
			c5.183,1.168,11.2,1.983,17.076,2.539c11.761,1.113,22.967,1.202,26.128,1.2c0.289,0,0.513,0,0.661-0.002c0.149,0,0.223,0,0.223,0
			h0.02h0.023c0,0,0.066,0,0.207,0.002c0.14,0,0.349,0.002,0.621,0.002c2.104,0,8.001-0.052,15.146-0.545
			c7.139-0.49,15.537-1.433,22.563-3.171c4.682-1.148,8.751-2.685,11.337-4.499c1.73-1.208,3.064-2.654,4.112-4.225
			c1.047-1.569,1.802-3.263,2.337-4.927c0.932-2.885,1.192-5.67,1.243-7.438H119.336
			C119.321,171.839,119.311,172.277,119.311,172.756z"/>
		<path fill="#AB312E" d="M182.091,166.922c-2.996-1.473-5.137-3.534-6.628-5.798c-0.957-1.456-1.65-2.988-2.152-4.511
			c0.128,0.908,0.24,1.871,0.32,2.894c0.024,0.294,0.035,0.578,0.035,0.852c0,0.934-0.135,1.751-0.405,2.458
			c-0.269,0.707-0.681,1.3-1.195,1.75c-1.038,0.908-2.407,1.227-3.842,1.228c-1.895-0.004-3.985-0.546-5.983-1.299
			c-1.996-0.755-3.889-1.727-5.34-2.637c-0.972-0.61-1.736-1.178-2.245-1.698c-0.735-0.757-1.468-1.407-2.246-1.855
			c-0.78-0.447-1.596-0.708-2.589-0.711c-1.563-0.004-3.649,0.687-6.515,2.667c-2.858,1.973-5.768,2.845-8.473,2.845
			c-3.876,0-7.297-1.784-9.579-4.498c-1.077-1.272-2.183-1.982-3.397-2.408c-1.213-0.424-2.553-0.547-4.041-0.547
			c-0.445-0.001-0.904,0.011-1.373,0.027c-0.217,0.171-0.428,0.35-0.625,0.543c-1.326,1.311-2.141,3.107-2.141,5.098
			c0,1.991,0.815,3.787,2.141,5.097c1.328,1.309,3.158,2.119,5.191,2.119h65.725C185.002,168.137,183.454,167.594,182.091,166.922z"
			/>
		<path fill="#AB312E" d="M238.371,161.277c-0.704,0-1.44-0.097-2.193-0.296c-1.466-0.387-2.642-1.011-3.618-1.612
			c-0.975-0.604-1.766-1.184-2.417-1.506c-0.436-0.218-0.79-0.32-1.112-0.319c-0.377,0.004-0.784,0.121-1.381,0.584
			c-0.587,0.461-1.315,1.269-2.188,2.525c-2.583,3.734-5.947,5.031-8.682,5.021c-1.06-0.001-2.028-0.187-2.847-0.493
			c-0.816-0.31-1.485-0.727-1.953-1.271c-0.306-0.363-0.539-0.813-0.542-1.343c-0.001-0.069,0.012-0.138,0.02-0.208
			c-1.656,2.08-3.877,3.841-6.805,5.049c-1.097,0.455-2.291,0.832-3.588,1.129h35.115c2.033,0,3.863-0.811,5.193-2.119
			c1.325-1.31,2.14-3.105,2.141-5.097c-0.001-0.75-0.117-1.473-0.332-2.153c-0.134,0.161-0.275,0.315-0.426,0.461
			C241.646,160.688,240.099,161.279,238.371,161.277z"/>
		<path fill="#C35F4D" d="M175.214,157.018c1.273,3.271,3.52,6.391,7.606,8.408c2.728,1.343,6.301,2.194,10.994,2.194h0.091
			c4.154-0.01,7.477-0.659,10.117-1.753c2.643-1.097,4.611-2.631,6.09-4.458c2.797-3.455,3.824-8.039,3.926-12.641h-21.341H173.71
			C173.765,151.098,174.085,154.11,175.214,157.018z M182.859,158.287c-0.496-2.266,3.963-2.889,3.963-2.889
			C188.14,157.973,183.354,160.553,182.859,158.287z M187.191,161.108c-1.615-1.729,1.926-4.375,1.926-4.375
			C191.606,158.344,188.809,162.842,187.191,161.108z M199.756,161.886c-2.4-0.413-1.331-4.572-1.331-4.572
			C201.433,157.123,202.152,162.303,199.756,161.886z M204.838,159.648c-2.402,0.398-2.915-3.852-2.915-3.852
			C204.672,154.628,207.236,159.248,204.838,159.648z M207.507,154.672c-1.653,1.699-4.777-1.384-4.777-1.384
			C204.168,150.774,209.159,152.971,207.507,154.672z M185.388,152.679c-0.606,2.803-6.055,2.085-4.995,0
			C181.452,150.596,185.388,152.679,185.388,152.679z"/>
		<polygon fill="#DFA555" points="237.616,119.145 237.616,119.145 237.616,119.145 		"/>
		<path fill="#DFA555" d="M238.163,116.514c0.288-1.728,0.577-4.202,0.576-7.114c0.001-4.062-0.563-8.961-2.441-13.902
			c-1.881-4.947-5.047-9.945-10.374-14.35c-3.556-2.935-8.085-5.605-13.882-7.771c-7.726-2.886-17.704-4.86-30.531-5.298
			c-1.82-0.063-3.593-0.093-5.313-0.093c-14.973-0.001-26.139,2.3-34.423,5.84c-8.289,3.545-13.72,8.299-17.358,13.394
			c-2.422,3.399-4.042,6.966-5.108,10.454c-1.42,4.647-1.846,9.154-1.845,12.835c0,2.856,0.255,5.212,0.483,6.741l120.071,0.084
			C238.065,117.08,238.114,116.813,238.163,116.514z M132.322,101.532c-1.799,0-3.257-1.457-3.257-3.258
			c0-1.798,1.458-3.258,3.257-3.258c1.797,0,3.255,1.46,3.255,3.258C135.577,100.075,134.119,101.532,132.322,101.532z
			 M144.609,111.212c-1.641,0-2.968-1.266-2.968-2.827c0-1.561,1.327-2.828,2.968-2.828c1.642,0,2.973,1.268,2.973,2.828
			C147.582,109.946,146.251,111.212,144.609,111.212z M149.259,86.201c-1.459,0-2.645-1.158-2.645-2.587
			c0-1.43,1.186-2.588,2.645-2.588c1.461,0,2.646,1.158,2.646,2.588C151.905,85.043,150.72,86.201,149.259,86.201z M157.755,98.274
			c-1.688,0-3.053-1.394-3.053-3.113c0-1.721,1.365-3.115,3.053-3.115c1.686,0,3.053,1.395,3.053,3.115
			C160.808,96.881,159.44,98.274,157.755,98.274z M170.114,77.96c0-1.694,1.515-3.066,3.384-3.066s3.382,1.372,3.382,3.066
			c0,1.692-1.513,3.066-3.382,3.066S170.114,79.652,170.114,77.96z M175.951,108.625c-1.72,0-3.114-1.228-3.114-2.739
			c0-1.515,1.395-2.741,3.114-2.741s3.114,1.227,3.114,2.741C179.065,107.397,177.671,108.625,175.951,108.625z M188.133,95.017
			c-1.766,0-3.196-1.329-3.196-2.972c0-1.64,1.431-2.969,3.196-2.969c1.762,0,3.192,1.329,3.192,2.969
			C191.325,93.688,189.895,95.017,188.133,95.017z M198.982,113.798c-1.56,0-2.823-1.157-2.823-2.587
			c0-1.429,1.264-2.587,2.823-2.587s2.823,1.158,2.823,2.587C201.806,112.641,200.542,113.798,198.982,113.798z M201.922,82.08
			c0-1.534,1.324-2.778,2.957-2.778c1.635,0,2.96,1.244,2.96,2.778c0,1.535-1.325,2.778-2.96,2.778
			C203.246,84.858,201.922,83.615,201.922,82.08z M206.951,100.574c-1.709,0-3.096-1.243-3.096-2.779
			c0-1.533,1.387-2.777,3.096-2.777s3.097,1.244,3.097,2.777C210.048,99.331,208.66,100.574,206.951,100.574z M225.917,110.349
			c-1.8,0-3.257-1.373-3.257-3.067c0-1.692,1.457-3.064,3.257-3.064c1.798,0,3.256,1.372,3.256,3.064
			C229.173,108.976,227.715,110.349,225.917,110.349z"/>
		<path fill="#AB312E" d="M236.048,131.731c-2.356,0.039-5.293,0.169-9.615,1.958c-2.433,1.01-3.861,1.941-4.865,2.786
			c-1.004,0.846-1.598,1.628-2.373,2.423c-0.516,0.526-1.115,1.044-1.92,1.493c-1.076,0.601-2.491,1.078-4.595,1.449
			c-1.373,0.242-2.635,0.356-3.815,0.356c-3.047,0.002-5.549-0.769-8.021-1.939c-2.479-1.171-4.951-2.729-8.079-4.379
			c-2.516-1.327-4.843-1.935-7.22-1.937c-2.249,0-4.563,0.551-7.112,1.633c-2.548,1.079-5.323,2.691-8.46,4.78
			c-2.785,1.857-5.344,2.61-7.605,2.609c-2.208,0.001-4.103-0.716-5.617-1.709c-1.517-0.994-2.666-2.255-3.456-3.396
			c-0.527-0.765-0.895-1.469-1.107-2.049c-0.268-0.745-0.739-1.5-1.426-2.056c-0.69-0.555-1.593-0.938-2.87-0.941
			c-1.463-0.003-3.437,0.533-5.983,2.051c-1.691,1.006-3.45,1.407-5.125,1.405c-3.045-0.005-5.802-1.277-7.813-2.515
			c-0.995-0.615-1.807-1.227-2.38-1.691c-2.964,2.124-5.482,4.467-6.996,6.899c-0.14,0.224-0.293,0.42-0.504,0.587
			c-0.205,0.164-0.497,0.297-0.814,0.296c-0.219,0.001-0.427-0.063-0.593-0.151c-0.168-0.088-0.302-0.2-0.415-0.318
			c-0.227-0.238-0.389-0.509-0.543-0.818c-0.303-0.616-0.555-1.401-0.798-2.332c-0.263-1.011-0.504-2.191-0.726-3.444
			c-0.973,1.497-1.569,3.39-1.568,5.463c-0.001,2.485,0.847,4.723,2.187,6.315c1.343,1.597,3.143,2.542,5.117,2.542h114.733
			c1.973,0,3.774-0.945,5.118-2.542c1.337-1.593,2.187-3.83,2.186-6.315c0.001-2.484-0.849-4.72-2.186-6.313
			c-0.185-0.22-0.379-0.424-0.58-0.617c-0.303,0.101-0.607,0.186-0.917,0.237C238.271,131.729,237.229,131.713,236.048,131.731z"/>
		<path fill="#92A55A" d="M117.816,153.985c1.574,0.001,3.106,0.125,4.583,0.639c1.477,0.511,2.875,1.426,4.118,2.906
			c1.995,2.366,4.952,3.907,8.315,3.908c2.35-0.001,4.917-0.749,7.535-2.553c3.017-2.078,5.396-2.954,7.452-2.957
			c1.297-0.003,2.435,0.362,3.414,0.931c0.983,0.569,1.819,1.329,2.605,2.136c0.337,0.351,1.037,0.888,1.936,1.45
			c0.901,0.564,2.01,1.169,3.204,1.718c2.387,1.102,5.144,1.971,7.244,1.964c0.897,0.001,1.663-0.156,2.233-0.46
			c0.571-0.31,0.979-0.737,1.258-1.449c0.182-0.476,0.295-1.087,0.294-1.859c0-0.227-0.009-0.467-0.029-0.72
			c-0.442-5.581-1.755-9.479-2.256-10.799H115.65c-0.04,0.034-0.067,0.056-0.116,0.1c-0.215,0.184-0.518,0.447-0.864,0.765
			c-0.693,0.631-1.564,1.479-2.25,2.298c-0.458,0.545-0.83,1.084-1.009,1.484c-0.105,0.226-0.14,0.399-0.136,0.465l0.001,0.021
			l0.02,0.015c0.073,0.054,0.392,0.162,0.97,0.157C114.189,154.146,116.034,153.987,117.816,153.985z"/>
		<path fill="#92A55A" d="M214.844,157.547c-0.243,1.337-0.53,2.574-0.905,3.546c-0.219,0.558-0.454,1.032-0.805,1.421l-0.038,0.053
			l0,0l0.019,0.068c0.021,0.046,0.06,0.114,0.127,0.193c0.135,0.16,0.379,0.358,0.712,0.537c0.666,0.363,1.675,0.645,2.827,0.643
			c2.236-0.011,5.008-0.992,7.324-4.31c0.929-1.333,1.734-2.258,2.525-2.883c0.782-0.622,1.598-0.942,2.4-0.938
			c0.676,0.001,1.286,0.212,1.851,0.494c0.564,0.283,1.102,0.644,1.669,1.016c1.133,0.744,2.377,1.541,4.05,1.983
			c0.625,0.165,1.218,0.241,1.771,0.241c1.36-0.002,2.47-0.454,3.243-1.192c0.772-0.742,1.236-1.778,1.239-3.088
			c0.003-1.617-0.755-3.675-2.683-5.893h-24.396C215.67,150.979,215.39,154.514,214.844,157.547z"/>
		<path fill="#92A55A" d="M136.781,134.604c1.418-0.003,2.854-0.328,4.281-1.175c2.719-1.614,4.962-2.28,6.827-2.282
			c1.622-0.005,2.943,0.523,3.909,1.311c0.97,0.786,1.588,1.803,1.944,2.781c0.144,0.399,0.452,1.011,0.909,1.67
			c0.458,0.66,1.063,1.376,1.799,2.029c1.479,1.311,3.453,2.36,5.915,2.361c1.894-0.002,4.116-0.619,6.691-2.332
			c3.183-2.121,6.037-3.785,8.73-4.928c2.692-1.142,5.232-1.763,7.756-1.763c2.666-0.002,5.289,0.698,7.989,2.127
			c3.189,1.686,5.667,3.24,8.013,4.345c2.352,1.107,4.549,1.779,7.318,1.782c1.075,0,2.239-0.104,3.528-0.33
			c2.246-0.396,3.513-0.896,4.383-1.448c0.87-0.551,1.409-1.198,2.178-2.041c0.51-0.558,1.114-1.184,1.949-1.836
			c1.114-0.871,2.63-1.785,4.897-2.726c3.404-1.415,6.093-1.865,8.247-2.01c2.153-0.144,3.763-0.012,4.954-0.229
			c0.798-0.146,1.407-0.396,2.061-0.981c1.163-1.047,1.915-2.637,1.908-4.067c-0.002-0.746-0.19-1.444-0.606-2.063
			c-0.397-0.592-1.022-1.123-1.96-1.535H219.82l-11.237,12.92l-0.435-1.434c-0.562-1.848-1.7-3.486-3.142-4.91
			c-1.438-1.422-3.175-2.621-4.869-3.585c-3.227-1.834-6.296-2.813-6.882-2.991h-41.688l-22.54,9.152
			c-0.342,0.217-0.67,0.442-1.004,0.664c0.486,0.376,1.099,0.815,1.811,1.255C131.696,133.488,134.213,134.608,136.781,134.604z"/>
		<path fill="#EBC55E" d="M115.657,123.961c0.268,2.445,0.659,5.583,1.137,8.329c0.318,1.828,0.68,3.488,1.054,4.616
			c0.145,0.449,0.301,0.807,0.429,1.041c1.808-2.829,4.651-5.371,7.906-7.64c3.307-2.302,7.04-4.313,10.553-5.979
			c3.23-1.533,6.266-2.769,8.614-3.661h-30.027c0.008,0.091,0.016,0.174,0.025,0.276
			C115.418,121.687,115.522,122.738,115.657,123.961z"/>
		<path fill="#EBC55E" d="M209.22,130.921l8.398-9.657h-19.712c0.022,0.011,0.044,0.02,0.066,0.029
			c2.477,1.123,5.565,2.822,8.042,5.208C207.325,127.766,208.46,129.236,209.22,130.921z"/>
		<path fill="#673631" d="M242.762,167.359c1.489-1.582,2.411-3.706,2.411-6.039c0-1.442-0.356-2.801-0.976-4.006
			c0.204-0.618,0.315-1.282,0.313-1.983c-0.003-2.221-1.041-4.748-3.346-7.287l-0.246-0.271h-1.46
			c0.976-0.536,1.856-1.26,2.591-2.139c1.604-1.912,2.577-4.523,2.578-7.39c-0.001-2.865-0.974-5.475-2.578-7.389
			c-0.102-0.12-0.212-0.229-0.318-0.345c0.147-0.109,0.297-0.213,0.438-0.344c1.49-1.357,2.45-3.313,2.457-5.305
			c0.002-1.033-0.273-2.081-0.891-2.998c-0.34-0.508-0.794-0.963-1.335-1.362c0.081-0.3,1.307-4.729,1.31-11.103
			c0-4.019-0.491-8.813-2.108-13.807c-1.212-3.743-3.062-7.596-5.803-11.273c-4.107-5.523-10.219-10.621-19-14.412
			c-8.784-3.797-20.224-6.315-35.119-6.825c-1.877-0.064-3.703-0.097-5.483-0.097c-13.753,0.001-24.632,1.874-33.244,5.007
			c-6.456,2.347-11.632,5.408-15.736,8.893c-6.162,5.225-9.875,11.389-12.005,17.343c-2.136,5.959-2.719,11.71-2.721,16.28
			c0.001,5.78,0.935,9.689,0.967,9.826l0.278,1.155c0.175,1.809,0.501,4.922,0.948,8.053c0.048,0.336,0.098,0.673,0.149,1.008
			c-0.094,0.103-0.194,0.198-0.284,0.306c-1.604,1.914-2.576,4.523-2.577,7.389c0.001,2.866,0.973,5.476,2.577,7.39
			c0.491,0.587,1.05,1.099,1.654,1.539h-1.148l-0.228,0.188c-0.014,0.011-1.255,1.023-2.519,2.305
			c-0.631,0.643-1.269,1.349-1.771,2.055c-0.25,0.355-0.469,0.71-0.634,1.073c-0.164,0.363-0.283,0.738-0.286,1.158
			c-0.001,0.266,0.057,0.556,0.198,0.818c0.214,0.4,0.596,0.68,1.007,0.828c0.417,0.153,0.884,0.212,1.443,0.214
			c0.59,0,1.163-0.015,1.727-0.034c-1.23,1.518-1.972,3.446-1.972,5.543c0,2.455,1.011,4.684,2.638,6.286
			c0.253,0.251,0.527,0.48,0.811,0.7l-0.104,0.786c-0.009,0.069-0.196,1.499-0.196,3.663c0.001,2.43,0.23,5.782,1.27,9.202
			c0.521,1.709,1.249,3.436,2.274,5.059c1.024,1.619,2.352,3.133,4.044,4.368c1.641,1.197,3.64,2.17,5.911,3.02
			c3.973,1.479,8.794,2.564,13.92,3.396c7.685,1.241,16.044,1.893,23.027,2.239c6.98,0.345,12.579,0.382,14.703,0.382
			c0.534,0,0.834-0.001,0.896-0.001c0.045,0,0.336,0.003,0.858,0.003c2.896-0.002,12.559-0.091,23.05-1.223
			c5.246-0.566,10.7-1.392,15.649-2.614c4.95-1.23,9.395-2.824,12.706-5.12c2.193-1.528,3.895-3.379,5.193-5.328
			c1.951-2.928,3.011-6.068,3.597-8.823c0.586-2.757,0.696-5.14,0.696-6.6c0-0.918-0.045-1.471-0.049-1.521L242.762,167.359z
			 M243.515,161.32c-0.001,1.991-0.815,3.787-2.141,5.097c-1.33,1.309-3.16,2.119-5.193,2.119h-35.115
			c1.297-0.297,2.491-0.674,3.588-1.129c2.928-1.208,5.148-2.969,6.805-5.049c-0.008,0.07-0.021,0.139-0.02,0.208
			c0.003,0.53,0.236,0.979,0.542,1.343c0.468,0.545,1.137,0.962,1.953,1.271c0.818,0.307,1.787,0.492,2.847,0.493
			c2.734,0.011,6.099-1.286,8.682-5.021c0.872-1.257,1.601-2.064,2.188-2.525c0.597-0.463,1.004-0.58,1.381-0.584
			c0.322-0.001,0.677,0.102,1.112,0.319c0.651,0.322,1.442,0.901,2.417,1.506c0.977,0.602,2.152,1.226,3.618,1.612
			c0.753,0.199,1.489,0.296,2.193,0.296c1.728,0.002,3.275-0.589,4.386-1.649c0.15-0.146,0.292-0.3,0.426-0.461
			C243.397,159.848,243.514,160.57,243.515,161.32z M172.191,151.12c-0.271-0.988-0.525-1.777-0.729-2.352h0.589
			C172.069,149.492,172.11,150.282,172.191,151.12z M192.697,148.769h21.341c-0.102,4.602-1.129,9.186-3.926,12.641
			c-1.479,1.827-3.447,3.361-6.09,4.458c-2.641,1.094-5.963,1.743-10.117,1.753h-0.091c-4.693,0-8.267-0.852-10.994-2.194
			c-4.087-2.018-6.333-5.138-7.606-8.408c-1.129-2.907-1.449-5.92-1.504-8.249H192.697z M240.171,149.438
			c1.928,2.218,2.686,4.275,2.683,5.893c-0.003,1.31-0.467,2.346-1.239,3.088c-0.773,0.738-1.883,1.19-3.243,1.192
			c-0.554,0-1.146-0.076-1.771-0.241c-1.673-0.442-2.917-1.239-4.05-1.983c-0.567-0.372-1.104-0.732-1.669-1.016
			c-0.564-0.282-1.175-0.493-1.851-0.494c-0.803-0.004-1.618,0.316-2.4,0.938c-0.791,0.625-1.597,1.55-2.525,2.883
			c-2.316,3.317-5.088,4.299-7.324,4.31c-1.152,0.002-2.161-0.279-2.827-0.643c-0.333-0.179-0.577-0.377-0.712-0.537
			c-0.067-0.079-0.106-0.147-0.127-0.193l-0.019-0.068l0,0l0.038-0.053c0.351-0.389,0.586-0.863,0.805-1.421
			c0.375-0.972,0.662-2.209,0.905-3.546c0.546-3.033,0.826-6.568,0.931-8.108H240.171z M242.97,124.862
			c0.007,1.431-0.745,3.021-1.908,4.067c-0.653,0.585-1.263,0.836-2.061,0.981c-1.191,0.217-2.801,0.085-4.954,0.229
			c-2.154,0.145-4.843,0.595-8.247,2.01c-2.268,0.94-3.783,1.854-4.897,2.726c-0.835,0.652-1.439,1.278-1.949,1.836
			c-0.769,0.843-1.308,1.49-2.178,2.041c-0.87,0.553-2.137,1.052-4.383,1.448c-1.289,0.227-2.453,0.33-3.528,0.33
			c-2.77-0.003-4.967-0.675-7.318-1.782c-2.346-1.104-4.823-2.659-8.013-4.345c-2.7-1.429-5.323-2.129-7.989-2.127
			c-2.523,0-5.063,0.621-7.756,1.763c-2.693,1.143-5.548,2.807-8.73,4.928c-2.575,1.713-4.798,2.33-6.691,2.332
			c-2.462-0.001-4.436-1.051-5.915-2.361c-0.736-0.653-1.341-1.369-1.799-2.029c-0.457-0.659-0.766-1.271-0.909-1.67
			c-0.356-0.979-0.975-1.995-1.944-2.781c-0.966-0.787-2.287-1.315-3.909-1.311c-1.865,0.002-4.108,0.668-6.827,2.282
			c-1.427,0.847-2.863,1.172-4.281,1.175c-2.568,0.005-5.085-1.115-6.946-2.269c-0.712-0.439-1.324-0.879-1.811-1.255
			c0.334-0.222,0.662-0.447,1.004-0.664l22.54-9.152h41.688c0.586,0.179,3.655,1.157,6.882,2.991
			c1.694,0.964,3.431,2.163,4.869,3.585c1.441,1.424,2.58,3.063,3.142,4.91l0.435,1.434l11.237-12.92h20.583
			c0.938,0.412,1.563,0.943,1.96,1.535C242.779,123.418,242.968,124.116,242.97,124.862z M217.618,121.264l-8.398,9.657
			c-0.76-1.685-1.895-3.155-3.205-4.42c-2.477-2.386-5.565-4.085-8.042-5.208c-0.022-0.01-0.044-0.019-0.066-0.029H217.618z
			 M145.35,120.667c-2.349,0.893-5.384,2.128-8.614,3.661c-3.513,1.666-7.246,3.678-10.553,5.979
			c-3.255,2.269-6.098,4.811-7.906,7.64c-0.128-0.234-0.284-0.592-0.429-1.041c-0.374-1.128-0.736-2.788-1.054-4.616
			c-0.478-2.746-0.869-5.884-1.137-8.329c-0.134-1.223-0.239-2.274-0.309-3.018c-0.01-0.103-0.017-0.186-0.025-0.276H145.35z
			 M119.308,97.673c1.066-3.488,2.687-7.055,5.108-10.454c3.639-5.095,9.069-9.849,17.358-13.394
			c8.284-3.54,19.45-5.841,34.423-5.84c1.721,0,3.493,0.029,5.313,0.093c12.827,0.438,22.806,2.412,30.531,5.298
			c5.797,2.166,10.326,4.837,13.882,7.771c5.327,4.404,8.493,9.402,10.374,14.35c1.878,4.941,2.442,9.841,2.441,13.902
			c0.001,2.912-0.288,5.387-0.576,7.114c-0.049,0.299-0.098,0.566-0.146,0.819l-120.071-0.084c-0.228-1.529-0.483-3.885-0.483-6.741
			C117.461,106.827,117.887,102.32,119.308,97.673z M115.816,144.56c-1.339-1.593-2.188-3.83-2.187-6.315
			c-0.001-2.073,0.595-3.966,1.568-5.463c0.222,1.253,0.463,2.434,0.726,3.444c0.243,0.931,0.495,1.716,0.798,2.332
			c0.154,0.31,0.316,0.58,0.543,0.818c0.113,0.118,0.247,0.23,0.415,0.318c0.166,0.089,0.374,0.152,0.593,0.151
			c0.317,0.001,0.609-0.132,0.814-0.296c0.211-0.167,0.364-0.363,0.504-0.587c1.514-2.433,4.032-4.775,6.996-6.899
			c0.573,0.465,1.385,1.076,2.38,1.691c2.012,1.237,4.769,2.51,7.813,2.515c1.675,0.002,3.434-0.399,5.125-1.405
			c2.547-1.518,4.521-2.054,5.983-2.051c1.277,0.003,2.18,0.387,2.87,0.941c0.687,0.556,1.158,1.311,1.426,2.056
			c0.213,0.58,0.58,1.284,1.107,2.049c0.79,1.142,1.939,2.402,3.456,3.396c1.515,0.993,3.409,1.71,5.617,1.709
			c2.262,0.001,4.82-0.752,7.605-2.609c3.137-2.089,5.912-3.701,8.46-4.78c2.55-1.082,4.863-1.633,7.112-1.633
			c2.377,0.002,4.704,0.609,7.22,1.937c3.128,1.65,5.601,3.208,8.079,4.379c2.473,1.171,4.975,1.941,8.021,1.939
			c1.181,0,2.442-0.114,3.815-0.356c2.104-0.371,3.519-0.849,4.595-1.449c0.805-0.449,1.404-0.967,1.92-1.493
			c0.775-0.795,1.369-1.577,2.373-2.423c1.004-0.845,2.433-1.776,4.865-2.786c4.322-1.789,7.259-1.919,9.615-1.958
			c1.181-0.019,2.224-0.002,3.239-0.18c0.31-0.052,0.614-0.137,0.917-0.237c0.201,0.193,0.396,0.397,0.58,0.617
			c1.337,1.593,2.187,3.828,2.186,6.313c0.001,2.485-0.849,4.723-2.186,6.315c-1.344,1.597-3.146,2.542-5.118,2.542H120.933
			C118.959,147.102,117.159,146.156,115.816,144.56z M112.265,154.145c-0.578,0.005-0.897-0.104-0.97-0.157l-0.02-0.015
			l-0.001-0.021c-0.003-0.065,0.031-0.239,0.136-0.465c0.179-0.4,0.551-0.939,1.009-1.484c0.686-0.819,1.557-1.667,2.25-2.298
			c0.346-0.317,0.649-0.581,0.864-0.765c0.049-0.044,0.077-0.065,0.116-0.1h54.074c0.501,1.319,1.813,5.218,2.256,10.799
			c0.021,0.253,0.029,0.493,0.029,0.72c0.001,0.772-0.112,1.384-0.294,1.859c-0.279,0.712-0.687,1.14-1.258,1.449
			c-0.57,0.304-1.336,0.461-2.233,0.46c-2.101,0.007-4.857-0.862-7.244-1.964c-1.194-0.549-2.303-1.153-3.204-1.718
			c-0.898-0.563-1.599-1.1-1.936-1.45c-0.786-0.807-1.622-1.566-2.605-2.136c-0.979-0.568-2.117-0.934-3.414-0.931
			c-2.057,0.003-4.436,0.879-7.452,2.957c-2.618,1.804-5.186,2.552-7.535,2.553c-3.363-0.001-6.32-1.542-8.315-3.908
			c-1.243-1.48-2.642-2.396-4.118-2.906c-1.478-0.514-3.01-0.638-4.583-0.639C116.034,153.987,114.189,154.146,112.265,154.145z
			 M113.677,161.32c0-1.99,0.815-3.787,2.141-5.098c0.197-0.193,0.408-0.372,0.625-0.543c0.469-0.017,0.928-0.028,1.373-0.027
			c1.488,0,2.828,0.123,4.041,0.547c1.215,0.426,2.32,1.136,3.397,2.408c2.282,2.714,5.703,4.498,9.579,4.498
			c2.705,0,5.614-0.872,8.473-2.845c2.865-1.98,4.951-2.671,6.515-2.667c0.993,0.003,1.809,0.264,2.589,0.711
			c0.778,0.448,1.511,1.099,2.246,1.855c0.509,0.521,1.273,1.088,2.245,1.698c1.451,0.91,3.344,1.882,5.34,2.637
			c1.998,0.753,4.089,1.295,5.983,1.299c1.435-0.001,2.804-0.319,3.842-1.228c0.515-0.45,0.927-1.043,1.195-1.75
			c0.271-0.707,0.405-1.524,0.405-2.458c0-0.273-0.011-0.558-0.035-0.852c-0.08-1.022-0.192-1.985-0.32-2.894
			c0.502,1.522,1.195,3.055,2.152,4.511c1.491,2.264,3.632,4.325,6.628,5.798c1.363,0.672,2.911,1.215,4.644,1.614h-65.725
			c-2.033,0-3.863-0.811-5.191-2.119C114.492,165.107,113.677,163.312,113.677,161.32z M237.567,178.891
			c-0.535,1.664-1.29,3.357-2.337,4.927c-1.048,1.57-2.382,3.017-4.112,4.225c-2.586,1.814-6.655,3.351-11.337,4.499
			c-7.026,1.738-15.425,2.681-22.563,3.171c-7.145,0.493-13.041,0.545-15.146,0.545c-0.272,0-0.481-0.002-0.621-0.002
			c-0.141-0.002-0.207-0.002-0.207-0.002h-0.023h-0.02c0,0-0.073,0-0.223,0c-0.148,0.002-0.372,0.002-0.661,0.002
			c-3.161,0.002-14.367-0.087-26.128-1.2c-5.876-0.556-11.894-1.371-17.076-2.539c-2.59-0.585-4.972-1.259-7.006-2.017
			c-2.035-0.758-3.723-1.608-4.916-2.483c-1.227-0.897-2.198-1.995-2.984-3.236c-1.178-1.857-1.918-4.045-2.346-6.185
			c-0.431-2.14-0.552-4.223-0.551-5.839c0-0.479,0.01-0.917,0.025-1.304h119.475C238.76,173.221,238.499,176.006,237.567,178.891z"
			/>
		<path fill="#EFE055" d="M180.393,152.679c-1.06,2.085,4.389,2.803,4.995,0C185.388,152.679,181.452,150.596,180.393,152.679z"/>
		<path fill="#EFE055" d="M186.822,155.398c0,0-4.459,0.623-3.963,2.889C183.354,160.553,188.14,157.973,186.822,155.398z"/>
		<path fill="#EFE055" d="M189.117,156.733c0,0-3.541,2.646-1.926,4.375C188.809,162.842,191.606,158.344,189.117,156.733z"/>
		<path fill="#EFE055" d="M202.729,153.288c0,0,3.124,3.083,4.777,1.384C209.159,152.971,204.168,150.774,202.729,153.288z"/>
		<path fill="#EFE055" d="M201.923,155.797c0,0,0.513,4.25,2.915,3.852C207.236,159.248,204.672,154.628,201.923,155.797z"/>
		<path fill="#EFE055" d="M198.425,157.313c0,0-1.069,4.159,1.331,4.572C202.152,162.303,201.433,157.123,198.425,157.313z"/>
		<circle fill="#EFE179" cx="132.322" cy="98.274" r="3.258"/>
		<ellipse fill="#EFE179" cx="149.259" cy="83.614" rx="2.645" ry="2.587"/>
		<ellipse fill="#EFE179" cx="173.497" cy="77.96" rx="3.383" ry="3.066"/>
		<ellipse fill="#EFE179" cx="204.88" cy="82.08" rx="2.958" ry="2.778"/>
		<ellipse fill="#EFE179" cx="206.951" cy="97.796" rx="3.096" ry="2.778"/>
		<ellipse fill="#EFE179" cx="225.917" cy="107.283" rx="3.257" ry="3.066"/>
		<ellipse fill="#EFE179" cx="198.982" cy="111.211" rx="2.823" ry="2.587"/>
		<ellipse fill="#EFE179" cx="175.951" cy="105.885" rx="3.114" ry="2.74"/>
		<path fill="#EFE179" d="M188.133,89.076c-1.766,0-3.196,1.329-3.196,2.969c0,1.643,1.431,2.972,3.196,2.972
			c1.762,0,3.192-1.329,3.192-2.972C191.325,90.405,189.895,89.076,188.133,89.076z"/>
		<ellipse fill="#EFE179" cx="157.755" cy="95.16" rx="3.053" ry="3.114"/>
		<ellipse fill="#EFE179" cx="144.609" cy="108.384" rx="2.968" ry="2.828"/>
	</g>
</g>
</svg>
